<svg width="23" height="22" viewBox="0 0 23 22" fill="none" xmlns="http://www.w3.org/2000/svg">
<path d="M18.5 10C18.5 5.30558 14.6944 1.5 10 1.5C5.30558 1.5 1.5 5.30558 1.5 10C1.5 14.6944 5.30558 18.5 10 18.5V20C4.47715 20 0 15.5228 0 10C0 4.47715 4.47715 0 10 0C15.5228 0 20 4.47715 20 10C20 15.5228 15.5228 20 10 20V18.5C14.6944 18.5 18.5 14.6944 18.5 10Z" fill="white"/>
<path d="M21.5305 20.4092C21.8232 20.7021 21.8233 21.177 21.5305 21.4698C21.2558 21.7445 20.821 21.7614 20.5265 21.5209L20.4698 21.4698L16.5303 17.5303C16.2374 17.2374 16.2374 16.7626 16.5303 16.4697C16.8232 16.1768 17.2981 16.1768 17.591 16.4697L21.5305 20.4092Z" fill="white"/>
</svg>
