<svg viewBox="0 0 21 22" fill="currentColor" xmlns="http://www.w3.org/2000/svg">
<path d="M19.25 21C19.25 16.4813 15.3712 12.75 10.5 12.75C5.62878 12.75 1.75 16.4813 1.75 21C1.75 21.4142 1.41421 21.75 1 21.75C0.585786 21.75 0.25 21.4142 0.25 21C0.25 15.5775 4.87781 11.25 10.5 11.25C16.1222 11.25 20.75 15.5775 20.75 21C20.75 21.4142 20.4142 21.75 20 21.75C19.5858 21.75 19.25 21.4142 19.25 21Z" fill="white"/>
<path d="M14.5 5.5C14.5 3.29086 12.7091 1.5 10.5 1.5C8.29086 1.5 6.5 3.29086 6.5 5.5C6.5 7.70914 8.29086 9.5 10.5 9.5V11C7.46243 11 5 8.53757 5 5.5C5 2.46243 7.46243 0 10.5 0C13.5376 0 16 2.46243 16 5.5C16 8.53757 13.5376 11 10.5 11V9.5C12.7091 9.5 14.5 7.70914 14.5 5.5Z" fill="white"/>
</svg>
