<svg viewBox="0 0 13 13" fill="none" xmlns="http://www.w3.org/2000/svg">
<path d="M6.03586 0.646269C6.16295 0.293854 6.66135 0.293855 6.78843 0.64627L8.12747 4.35962C8.18308 4.51383 8.32715 4.6185 8.49099 4.62373L12.4364 4.74975C12.8108 4.76171 12.9648 5.23572 12.6689 5.46548L9.55112 7.88648C9.42164 7.98701 9.36662 8.15637 9.41227 8.31381L10.5116 12.105C10.6159 12.4649 10.2127 12.7578 9.90277 12.5474L6.63681 10.3303C6.50118 10.2382 6.32311 10.2382 6.18748 10.3303L2.92152 12.5474C2.61156 12.7578 2.20835 12.4649 2.31268 12.105L3.41203 8.31381C3.45768 8.15637 3.40265 7.98701 3.27318 7.88648L0.155356 5.46548C-0.140541 5.23572 0.0134738 4.76171 0.387911 4.74975L4.33331 4.62373C4.49715 4.6185 4.64121 4.51383 4.69682 4.35962L6.03586 0.646269Z" fill="#F40004"/>
</svg>
