<svg width="88" height="51" viewBox="0 0 88 51" fill="none" xmlns="http://www.w3.org/2000/svg">
<path d="M25.132 19.7482C25.6113 19.6943 27.3918 21.2715 27.5288 21.2715C27.5973 21.2715 28.0766 20.6514 28.3779 20.7727C28.3505 21.0153 27.7479 21.2175 27.7342 21.3389C27.7205 21.4871 28.7614 22.3094 28.8984 22.6195C29.0764 23.0239 28.0355 22.4577 28.0081 22.4173C27.9944 22.3903 28.1177 22.2285 28.0903 22.1342C27.967 21.6624 25.584 20.22 25.1457 19.7617L25.132 19.7482ZM32.2676 43.9718C32.4045 44.0931 33.8837 43.5539 34.185 43.5C34.637 43.4191 36.0339 43.527 36.2394 43.0821C36.3078 42.9473 36.1572 42.7586 36.1983 42.7182C36.2531 42.6642 36.4859 42.799 36.4311 42.5834C35.445 42.516 34.8287 43.1226 34.0343 43.4056C33.8974 43.4596 31.8841 43.6483 32.2813 43.9853L32.2676 43.9718ZM7.76558 35.749L7.29992 35.6681L0 37.5958C2.3557 37.3127 4.60182 36.6252 6.86165 36.0051C7.12187 35.9377 7.53275 36.1669 7.76558 35.749ZM68.0139 8.15541L67.5482 8.07453L60.2483 10.0022C62.604 9.71909 64.8501 9.03161 67.1099 8.41153C67.3702 8.34413 67.781 8.57329 68.0139 8.15541ZM5.84815 45.5894L7.76558 44.8615L1.80786 46.3847C3.19115 46.3578 4.50595 45.8725 5.84815 45.5894ZM85.572 8.57329L86.2705 6.67261L83.5176 12.1051C84.4079 11.0536 84.9009 9.75953 85.572 8.57329ZM11.9565 45.4546C11.395 45.886 10.5869 46.6948 10.1076 47.2205C9.99801 47.3418 9.3817 48.0832 9.46387 48.1776C10.6417 47.3823 11.3813 46.169 12.4496 45.2524C12.1072 45.158 12.1072 45.3468 11.9702 45.4681L11.9565 45.4546ZM33.9522 21.2849C33.8152 21.1501 30.9801 22.9025 30.6788 23.0913C30.446 23.2261 29.8982 23.4013 29.9393 23.6979C31.2267 23.0643 32.473 22.3229 33.7056 21.595C33.7878 21.5411 34.185 21.5006 33.9658 21.2849H33.9522ZM31.4869 25.2346C31.2541 25.2076 31.0897 25.4368 30.8295 25.302C30.7199 25.2346 30.8295 25.0863 30.7747 25.0189C30.5008 24.5875 30.0077 24.2236 29.9256 23.7113L29.2818 23.3878C29.8571 23.8866 30.3227 25.1537 30.7747 25.612C31.1034 25.9355 31.1582 25.4637 31.4869 25.2346ZM25.4607 49.4447L24.1048 49.7008C24.4883 49.7008 24.8855 50.0513 25.2142 50.0783C25.9127 50.1457 25.9948 49.5391 25.4607 49.4447ZM86.7773 0L85.4214 0.25612C85.8049 0.25612 86.202 0.606601 86.5307 0.633561C87.2292 0.700961 87.3114 0.0943601 86.7773 0ZM6.3549 28.2676C5.97142 27.9845 5.53315 28.0519 5.38249 28.2271L7.60123 28.7663C7.38209 28.3619 6.64252 28.4833 6.3549 28.2676ZM15.9283 19.236C15.2572 19.7887 14.2437 20.0717 13.8603 20.894L15.6407 19.6539L15.9283 19.236ZM5.6838 37.7306L3.09528 38.4989C3.79377 38.4854 4.58813 38.2428 5.24553 38.0002C5.40988 37.9462 5.64271 37.9732 5.6838 37.7306ZM33.24 34.9267C32.925 35.1424 32.9387 36.1264 33.4317 36.0725L33.24 34.9267ZM50.5516 22.0398L51.1679 21.9455L52.6197 21.3928L52.0034 21.4871L50.5516 22.0398ZM14.7779 26.9465L16.2023 27.4049C15.449 26.7309 14.0794 26.623 13.0933 26.6365L14.7916 26.9465H14.7779ZM21.0369 21.0423C22.0367 21.1636 22.8996 21.7433 23.8446 22.0533C23.2557 21.595 21.8998 20.8805 21.1876 20.7862C20.3795 20.6783 19.366 20.8671 18.5306 20.7862L20.9958 21.3658L23.0091 22.0668L22.2011 21.5815L20.6123 21.1636C20.5849 20.9345 20.9137 21.0288 21.0506 21.0558L21.0369 21.0423ZM28.5149 29.1842C28.6108 29.0764 27.6931 27.4183 27.474 27.661C27.3096 27.8362 28.1588 28.9955 28.1177 29.319C28.3916 29.2651 28.0903 28.9416 28.5012 29.1977L28.5149 29.1842ZM83.6409 7.75101C83.504 8.10149 83.3807 8.45197 83.2437 8.81593C83.1068 9.16641 82.9835 9.51689 82.8465 9.88085C82.5452 10.6357 82.2439 11.3771 81.9563 12.1051C81.6687 12.833 81.34 13.5744 80.9976 14.3158C80.6552 15.1246 80.3402 15.9199 80.0252 16.7152C79.7239 17.5105 79.3952 18.3059 79.0528 19.1147C78.8884 19.5191 78.7241 19.9235 78.5597 20.3279C78.3954 20.7323 78.2447 21.1501 78.1078 21.5545C77.9571 21.9724 77.8339 22.3903 77.7106 22.8082C77.601 23.2261 77.4915 23.6574 77.3819 24.0888C77.3819 24.1562 77.3819 24.2371 77.3545 24.3045C77.3271 24.3719 77.3134 24.4393 77.2997 24.5067C77.2038 24.8302 77.1354 25.1537 77.0943 25.4637C77.0532 25.7738 76.9984 26.1108 76.9299 26.4343C76.9025 26.5152 76.8614 26.5961 76.8477 26.65C76.8203 26.7174 76.7656 26.7848 76.656 26.8387C76.5601 26.9061 76.4779 27.0005 76.4369 27.1083C76.3958 27.3105 76.2862 27.4723 76.1219 27.5936C75.9575 27.7149 75.7795 27.8632 75.574 28.0115C75.5192 28.0789 75.4508 28.1328 75.3823 28.1732C75.3138 28.2002 75.2316 28.2541 75.1631 28.308C75.0125 28.2272 74.8618 28.1328 74.7386 28.025C74.6153 27.9171 74.451 27.8901 74.2455 27.9306C73.9579 27.5801 73.6703 27.2431 73.3827 26.9331C73.0951 26.623 72.8348 26.286 72.5883 25.949C72.3966 25.6659 72.2048 25.3829 72.0405 25.0998C71.8761 24.8167 71.7118 24.5471 71.5611 24.264C71.4105 23.9675 71.2735 23.6709 71.1913 23.3743C71.0955 23.0778 70.9722 22.7947 70.8215 22.5116C70.7941 22.269 70.7394 22.0533 70.6435 21.8646C70.5476 21.6893 70.5065 21.4737 70.5339 21.231C70.5339 21.1367 70.5065 21.0693 70.4928 21.0288C70.4791 20.9749 70.4381 20.921 70.397 20.8401C70.3422 20.7862 70.3148 20.7053 70.3148 20.6244C70.3148 20.5301 70.3011 20.4492 70.2874 20.3548L70.0957 18.4811L70.0546 18.4407C69.9724 18.5081 69.945 18.535 69.945 18.562C69.5889 19.1821 69.2465 19.8156 68.9178 20.4357C68.5891 21.0558 68.2741 21.6893 67.9591 22.3229C67.603 22.9834 67.2606 23.6439 66.9319 24.2775C66.6032 24.9245 66.2882 25.5851 66.0006 26.2591C65.8636 26.5017 65.7404 26.7443 65.6308 26.987C65.5349 27.2296 65.4254 27.4723 65.3295 27.7284C65.1377 28.1328 64.946 28.5372 64.7406 28.9416C64.5351 29.346 64.3297 29.7504 64.0969 30.1548C63.9736 30.357 63.8366 30.5592 63.6997 30.7479C63.5627 30.9366 63.3847 31.1119 63.1655 31.2736C63.1244 31.3006 63.0834 31.3276 63.0423 31.3545C63.0012 31.3815 62.9601 31.4084 62.9327 31.4624C62.782 31.6511 62.604 31.8128 62.4123 31.9342C62.2068 32.0555 62.0288 32.1768 61.8507 32.3251C61.6453 32.3251 61.4672 32.2442 61.3577 32.0959C61.3029 32.015 61.2481 31.9611 61.1796 31.9207C61.1111 31.8802 61.0427 31.8668 60.9605 31.8937C60.7961 31.9207 60.6729 31.9342 60.6044 31.8937C60.5222 31.8668 60.4674 31.8128 60.4127 31.732C60.125 31.341 59.9607 30.9501 59.947 30.5322L59.8785 29.8178C59.81 29.5752 59.7963 29.3325 59.8374 29.0899C59.8785 28.8338 59.8785 28.5911 59.8511 28.335C59.9333 28.1598 59.9607 27.9845 59.9333 27.7958C59.9059 27.6071 59.9333 27.4183 60.0155 27.2296C60.0292 26.9465 60.0566 26.6635 60.1113 26.3669C60.1661 26.0703 60.2209 25.7738 60.2757 25.4637C60.3031 25.0728 60.3579 24.6684 60.44 24.2505C60.44 24.2505 60.44 24.2505 60.44 24.2371L57.9748 25.0863C57.8515 25.4637 57.7283 25.8412 57.6187 26.2456C57.3859 27.0005 57.1667 27.7553 57.0024 28.5102C56.838 29.2651 56.6463 30.02 56.4408 30.7749C56.3724 31.1119 56.3176 31.4489 56.2765 31.7724C56.2354 32.1094 56.1806 32.4329 56.1121 32.743C56.071 32.9047 56.0437 33.053 56.03 33.2013C56.03 33.3361 55.9752 33.4978 55.893 33.6731C55.8793 33.727 55.8108 33.8348 55.7013 33.9831C55.6602 33.9427 55.5917 33.8753 55.5232 33.7944C55.5232 33.8888 55.4958 33.9831 55.4684 34.0775C55.441 34.1718 55.4136 34.2662 55.3863 34.3606C55.3315 34.4684 55.3041 34.5358 55.2767 34.5628C55.1397 34.6571 55.0165 34.7784 54.9069 34.9132C54.7973 35.048 54.6467 35.1424 54.4549 35.1828C54.4001 35.1963 54.3591 35.2368 54.3591 35.2637C54.3591 35.3042 54.3317 35.3446 54.2906 35.3985C54.2769 35.439 54.2358 35.4659 54.1536 35.4929C54.0851 35.5198 54.0304 35.5198 54.0167 35.5064C53.9893 35.4794 53.9619 35.4524 53.9482 35.4255C53.9208 35.3985 53.8934 35.3716 53.8797 35.3311C53.8112 35.2772 53.7427 35.2368 53.6743 35.1828C53.6058 35.1424 53.5236 35.1154 53.414 35.1154C53.1812 35.1154 53.0443 35.0346 52.9758 34.8863C52.921 34.7245 52.8388 34.5897 52.7429 34.4549L52.5512 32.5273C52.6334 32.3116 52.6608 32.1364 52.6197 31.9746C52.5786 31.8128 52.5923 31.6376 52.6197 31.4624C52.6471 31.2602 52.6471 31.058 52.6471 30.8558C52.6471 30.667 52.6745 30.4514 52.7429 30.2357C52.7977 29.9661 52.8388 29.6965 52.8799 29.4269C52.921 29.1573 52.9484 28.8877 52.9895 28.6181C53.0443 28.1732 53.1401 27.7419 53.2497 27.297C53.3045 27.0948 53.3456 26.8792 53.4003 26.677L50.7022 27.6071C50.7022 27.6071 50.7707 27.7284 50.8118 27.7823C50.8803 27.8497 50.9214 27.9306 50.9351 28.0384C50.9351 28.1328 50.9351 28.2272 50.9351 28.335C50.9214 28.362 50.894 28.3754 50.8803 28.3754L50.8529 28.4024C50.894 28.6046 50.8529 28.8068 50.757 29.0225C50.6475 29.2382 50.5242 29.4404 50.3736 29.6426C50.1544 30.02 49.9216 30.384 49.6477 30.7479C49.3737 31.1119 49.0587 31.4489 48.7027 31.7859C48.3603 32.1364 48.0179 32.4599 47.7028 32.7564C47.3741 33.0665 47.0317 33.363 46.6893 33.6461C46.3196 33.9292 45.9498 34.2123 45.5937 34.4954C45.2376 34.7784 44.8541 35.048 44.4569 35.3042C44.046 35.5603 43.5941 35.8568 43.101 36.1938C42.923 36.3421 42.7586 36.4904 42.5943 36.6252C42.4299 36.7735 42.2656 36.9083 42.1149 37.0431C41.9643 37.2318 41.7862 37.407 41.5808 37.5418C41.3753 37.6766 41.1836 37.8249 41.0055 38.0002C40.8686 38.135 40.7316 38.2563 40.581 38.3506C40.4303 38.4585 40.2934 38.5663 40.1564 38.7011C39.9236 38.9033 39.6907 39.092 39.4442 39.2808C39.1977 39.4695 38.9512 39.6582 38.6909 39.8469C38.4718 40.0222 38.2664 40.1165 38.0609 40.13C37.9651 40.157 37.9103 40.157 37.8966 40.13C37.8555 40.103 37.8281 40.0761 37.8281 40.0491C37.8281 40.0087 37.8418 39.9952 37.8829 39.9817C37.9514 39.8334 38.0609 39.6986 38.1842 39.5773C38.3759 39.4021 38.5677 39.2538 38.732 39.119C38.9101 38.9842 39.0881 38.8359 39.2936 38.6876C39.4305 38.5663 39.5538 38.472 39.6907 38.3911C39.814 38.3102 39.951 38.2024 40.0879 38.0676C39.9921 38.0002 39.9236 38.0136 39.8688 38.081C39.7044 38.1889 39.5401 38.2698 39.362 38.3372C39.184 38.4046 39.0059 38.4854 38.8553 38.5933C38.6909 38.6742 38.5266 38.7685 38.3622 38.8629C38.1979 38.9572 38.0198 39.0112 37.8555 39.0516C37.4309 39.2808 36.9926 39.456 36.527 39.5773C36.0613 39.7121 35.5957 39.8469 35.1437 39.9817C35.1026 39.9817 35.0752 39.9952 35.0615 39.9817C35.0615 39.9817 35.0204 39.9817 34.9793 39.9817C35.3765 39.6986 35.76 39.4425 36.1298 39.2403C36.39 39.0651 36.6229 38.9168 36.842 38.7685C37.0611 38.6337 37.2803 38.4854 37.4994 38.3506C37.7185 38.1889 37.7459 38.0676 37.5953 37.9867C37.5542 37.9597 37.5131 37.9328 37.4583 37.9058C37.4172 37.8788 37.3624 37.8654 37.294 37.8654C37.1433 37.8654 37.0474 37.8519 37.0063 37.798C36.9653 37.744 36.9242 37.6632 36.9242 37.5823C36.8968 37.461 36.8694 37.3396 36.8557 37.2183C36.8557 37.097 36.8694 36.9622 36.9379 36.8004C37.0063 36.396 37.0611 36.059 37.1022 35.8029C37.1433 35.5468 37.1981 35.2907 37.2529 35.0615C37.3076 34.8189 37.3761 34.5628 37.472 34.2797C37.5679 33.9966 37.6911 33.6192 37.8281 33.1743C37.8829 32.9586 37.9514 32.743 38.0198 32.5542C38.0883 32.3655 38.1431 32.1633 38.2116 31.9611C38.2116 31.9611 38.2116 31.9342 38.2116 31.9207L32.5415 33.8618C32.8565 36.8813 32.8565 39.8874 31.6375 42.7316C30.0762 46.3982 26.4742 49.0807 22.2695 48.1911C21.845 48.0967 21.2834 47.8001 20.9 47.7462C18.9004 47.4631 17.2295 47.9349 15.2025 46.9778C12.9015 45.8994 10.8472 43.5809 9.95692 41.2354L4.41008 43.1226C3.04049 43.2439 2.09547 40.831 3.08158 40.0222L8.45037 38.2832L8.65581 38.0945C8.16276 34.9672 7.92993 31.0445 9.86105 28.3215C10.3678 27.6071 11.0663 27.2296 11.573 26.5691C13.4768 24.1023 13.8876 21.7163 17.3116 20.4896C24.1733 18.0363 30.0351 24.4797 31.6786 30.4109C34.2672 29.4808 36.8694 28.5911 39.4716 27.7149C39.5675 27.3914 39.6633 27.0544 39.7729 26.7309C39.9647 26.1377 40.1701 25.5581 40.3892 24.9785C40.6084 24.4123 40.8138 23.8461 41.0055 23.28C41.0329 23.1587 41.074 23.0373 41.1425 22.916C41.1973 22.7947 41.2521 22.6734 41.2795 22.5521C41.1973 22.579 41.1288 22.606 41.074 22.6464C40.9782 22.7138 40.8686 22.7947 40.7727 22.9025C40.6632 23.0104 40.5673 23.1182 40.4714 23.2126C40.2112 23.4957 39.9784 23.7922 39.7729 24.1023C39.5675 24.4123 39.3894 24.7223 39.2114 25.0324C39.1566 25.0863 39.1429 25.1402 39.1703 25.1807C39.1977 25.2346 39.2251 25.2615 39.2388 25.2885C39.1429 25.3694 39.047 25.4368 38.9375 25.4637C38.8416 25.4907 38.7183 25.5311 38.5951 25.5716C38.5129 25.5446 38.4307 25.5042 38.3622 25.4637C38.2938 25.4233 38.2116 25.3963 38.1294 25.3829C38.0061 25.0324 38.0061 24.6819 38.1294 24.3449C38.239 23.9944 38.4033 23.6439 38.6225 23.28C39.1566 22.5116 39.8003 21.7433 40.5673 20.9884C40.8549 20.6783 41.1562 20.3818 41.4986 20.0987C41.841 19.8156 42.1697 19.546 42.4984 19.2764C42.6491 19.1416 42.786 19.0203 42.8819 18.9259C42.9915 18.8316 43.0873 18.6968 43.1695 18.5215C43.1695 18.4407 43.2106 18.3733 43.2654 18.3193C43.3065 18.2654 43.3475 18.198 43.3886 18.1306C43.553 17.9015 43.7995 17.7262 44.1282 17.6184C44.2652 17.551 44.3747 17.5375 44.4569 17.5645C44.5391 17.5914 44.6213 17.6184 44.7034 17.6588C44.8678 17.6049 45.0048 17.5375 45.1143 17.4566C45.2239 17.3757 45.3335 17.2949 45.4567 17.2275C45.8539 16.9713 46.2511 16.7422 46.662 16.5265C47.0728 16.3108 47.4837 16.0951 47.9083 15.8795C48.2918 15.6638 48.6205 15.529 48.9081 15.4616C49.045 15.4211 49.182 15.3537 49.2916 15.2863C49.4011 15.2189 49.5107 15.165 49.634 15.1246C49.8805 15.0167 50.127 14.9493 50.3736 14.9224C50.6201 14.8954 50.8666 14.855 51.1131 14.7741C51.1268 14.7741 51.1542 14.7741 51.1816 14.7741C51.209 14.7741 51.2364 14.7741 51.2775 14.7606C51.5514 14.7606 51.7979 14.7876 52.0308 14.8415C52.2636 14.8954 52.469 14.9628 52.6608 15.0437C52.7703 15.0707 52.8525 15.1111 52.8936 15.1785C52.9347 15.2459 52.9895 15.2998 53.0306 15.3672C53.0853 15.2055 53.1675 15.0437 53.2908 14.9224C53.4688 14.7337 53.688 14.5449 53.9482 14.3697C54.1262 14.2753 54.318 14.181 54.5097 14.0866C54.7015 13.9923 54.8658 13.8844 55.0302 13.7631C55.3315 13.6013 55.6328 13.4531 55.9341 13.3317C56.2354 13.2104 56.5367 13.0621 56.838 12.8734C57.0845 12.7925 57.3174 12.6847 57.5639 12.5364C57.7967 12.3881 58.0296 12.2938 58.2624 12.2399C58.4267 12.1859 58.55 12.1455 58.6322 12.0916C58.7281 12.0107 58.8376 11.9433 58.9746 11.9163C59.1115 11.8894 59.2485 11.8355 59.3855 11.7681L59.8374 11.6198C60.0018 11.5524 60.1798 11.485 60.3716 11.4445C60.5633 11.3906 60.7687 11.3097 60.9605 11.1884C61.2481 11.0941 61.5357 10.9997 61.8233 10.8784C62.1109 10.7571 62.4123 10.6897 62.7273 10.6627C62.8094 10.6627 62.8916 10.6357 62.9875 10.6088C63.0834 10.5818 63.1792 10.5549 63.2751 10.5414C63.5353 10.474 63.8092 10.3931 64.0695 10.3122C64.3297 10.2179 64.6036 10.1639 64.8775 10.1235C64.9871 10.1505 65.083 10.1235 65.1514 10.0965C65.2336 10.0561 65.3021 10.0157 65.3569 10.0022C65.4527 9.97521 65.5623 9.94825 65.6582 9.92129C65.7678 9.89433 65.8636 9.90781 65.9732 9.94825C66.0828 9.94825 66.1923 9.93477 66.3156 9.88085C66.4388 9.84041 66.5484 9.79997 66.6443 9.75953C66.836 9.71909 67.0141 9.66517 67.2058 9.58429C67.3976 9.50341 67.5756 9.46297 67.74 9.44949C67.9728 9.40905 68.1782 9.36861 68.3563 9.32817C68.5343 9.27425 68.7261 9.24729 68.9178 9.22033C69.1506 9.28773 69.3972 9.36861 69.6163 9.42253C69.8491 9.48993 70.0135 9.61125 70.1367 9.79997C70.0957 9.86737 70.0683 9.92129 70.0409 9.96173C70.0135 10.0022 69.9861 10.0561 69.945 10.1235C69.9039 10.1774 69.8765 10.2313 69.8628 10.2853C69.8491 10.3392 69.8217 10.4066 69.7944 10.474C69.945 10.474 70.082 10.4875 70.2189 10.4875C70.3559 10.4875 70.4928 10.4875 70.6161 10.4875C70.6435 10.5683 70.6161 10.6492 70.5613 10.7301C70.4928 10.811 70.4381 10.8649 70.4107 10.9188C70.397 10.9188 70.3696 10.9323 70.3422 10.9593C70.3148 10.9727 70.2874 10.9862 70.26 10.9593C70.1504 10.9727 70.0409 10.9862 69.9039 10.9862C69.767 10.9862 69.63 10.9997 69.4793 11.0132C69.4383 11.0132 69.4109 11.0401 69.4109 11.0536C69.4109 11.0536 69.3698 11.0806 69.3424 11.0941C69.3424 11.1615 69.3698 11.2019 69.3835 11.2154C69.493 11.2154 69.5889 11.2289 69.6985 11.2558C69.808 11.2828 69.9176 11.3097 70.0272 11.3502C70.0135 11.3771 69.9998 11.4041 69.9998 11.4445C69.9998 11.485 69.9998 11.5119 69.9724 11.5389C69.8628 11.6467 69.7396 11.7546 69.63 11.8624C69.5204 11.9703 69.3972 12.0916 69.2876 12.2129C69.2465 12.2668 69.2054 12.2938 69.1506 12.2938C69.0959 12.2938 69.0548 12.3073 69.0137 12.3207C68.8767 12.4016 68.8082 12.4555 68.8082 12.469C68.7809 12.5903 68.7261 12.6577 68.6439 12.6847C68.5617 12.7117 68.4658 12.7251 68.37 12.7386C68.2878 12.7386 68.2056 12.7386 68.1234 12.7386C68.0413 12.7521 67.9591 12.7521 67.8769 12.7386C67.603 12.7656 67.3291 12.7925 67.0689 12.833C66.8086 12.8599 66.5484 12.9273 66.2745 13.0217C66.1375 13.6013 65.9869 14.181 65.8225 14.7606C65.6993 15.1515 65.5897 15.529 65.5075 15.9064C65.4254 16.2839 65.3432 16.6478 65.261 17.0253C65.1377 17.4971 65.0419 17.9823 64.946 18.4407C64.8501 18.9125 64.768 19.3708 64.6584 19.8291C64.5625 20.3009 64.4666 20.7592 64.3845 21.2175C64.3023 21.6759 64.2338 22.1477 64.1516 22.6329C64.1105 22.8351 64.0695 23.0239 64.0421 23.1991C64.0147 23.3743 64.0284 23.5496 64.0832 23.7248C64.1105 23.7248 64.1516 23.6979 64.179 23.6709C64.2201 23.617 64.2475 23.5765 64.2612 23.5361C64.4666 23.1047 64.6858 22.6734 64.9186 22.2555C65.1514 21.8376 65.3706 21.4197 65.576 21.0019C65.8225 20.5031 66.0691 20.0178 66.3293 19.5595C66.5895 19.0877 66.8497 18.6294 67.1099 18.1576C67.3565 17.6993 67.6167 17.2275 67.9043 16.7691C68.1782 16.3108 68.4658 15.839 68.7535 15.3672C69.0411 14.8685 69.315 14.3832 69.6026 13.8979C69.8765 13.4126 70.1368 12.9004 70.3833 12.3881C70.5202 12.0916 70.6709 11.8085 70.8489 11.5524C71.027 11.2963 71.2187 11.0401 71.4242 10.7975C71.4926 10.6897 71.5611 10.5953 71.6296 10.5414C71.6981 10.4875 71.7803 10.4066 71.8761 10.3257C71.9583 10.2583 72.0268 10.2179 72.109 10.1909C72.1911 10.1639 72.287 10.1235 72.3829 10.0561C72.6157 10.0157 72.8075 10.0561 72.9718 10.1235C73.1362 10.2044 73.3005 10.3122 73.4649 10.4605C73.5607 10.5414 73.5744 10.6492 73.5333 10.7975C73.5059 10.9188 73.4649 11.0401 73.3964 11.1749C73.3416 11.3097 73.2868 11.4311 73.232 11.5524C73.2046 11.7141 73.1635 11.822 73.1088 11.8894C73.1909 11.8894 73.2594 11.9163 73.3142 11.9163C73.369 11.9163 73.4375 11.9433 73.5196 11.9433C73.6292 11.822 73.6977 11.7007 73.7251 11.5793C73.7388 11.458 73.7936 11.3502 73.862 11.2289C73.9442 11.1884 73.999 11.1749 74.0538 11.2019C74.0949 11.2289 74.1496 11.2558 74.2181 11.2828C74.177 11.3367 74.1496 11.4041 74.1086 11.485C74.0812 11.5659 74.0264 11.6333 73.9716 11.6872C73.8483 11.9568 73.7525 12.2129 73.684 12.4555C73.6155 12.6847 73.5607 12.9408 73.5196 13.2104C73.4922 13.3991 73.4649 13.5879 73.4375 13.7766C73.4101 13.9653 73.3827 14.154 73.3553 14.3697C73.2868 14.518 73.2594 14.6528 73.2868 14.7606C73.3142 14.8685 73.3005 15.0033 73.2868 15.1381C73.2594 15.2459 73.232 15.3403 73.232 15.4616C73.232 15.5694 73.232 15.6907 73.232 15.8121C73.232 15.9064 73.232 15.9873 73.232 16.0682C73.232 16.1491 73.2183 16.2434 73.1772 16.3513C73.1772 16.4321 73.1772 16.4995 73.1772 16.54C73.1909 16.5939 73.1909 16.6478 73.1772 16.7287C73.1772 16.877 73.1772 17.0253 73.2046 17.187C73.232 17.3488 73.2046 17.524 73.1498 17.7262C73.1088 17.7801 73.1088 17.8206 73.1362 17.8745C73.1635 17.9149 73.1772 17.9823 73.1909 18.0497L73.369 19.8426C73.369 19.9369 73.369 20.0178 73.369 20.1122C73.369 20.2065 73.4101 20.2874 73.5059 20.3413C73.5333 20.3683 73.547 20.4357 73.5607 20.5166C73.5607 20.7997 73.5881 21.0558 73.6703 21.3119C73.7525 21.5545 73.8346 21.7972 73.9031 22.0398C73.9442 22.269 74.0127 22.4847 74.0812 22.7003C74.1496 22.916 74.2455 23.1317 74.3551 23.3609C74.3825 23.3609 74.3962 23.3878 74.4236 23.4013C74.451 23.4013 74.4783 23.4283 74.5194 23.4552C74.6016 23.0778 74.6975 22.7138 74.8071 22.3633C74.9029 22.0129 74.9988 21.6624 75.0947 21.3254C75.2179 20.921 75.3275 20.5301 75.4371 20.1526C75.5329 19.7887 75.6562 19.4112 75.7795 19.0338C75.9438 18.5485 76.0945 18.0632 76.2451 17.6049C76.3958 17.1466 76.5601 16.6748 76.7108 16.203C76.9162 15.7177 77.108 15.2324 77.286 14.7471C77.4641 14.2619 77.6695 13.7631 77.8886 13.2778C78.1625 12.6038 78.4365 11.9433 78.7241 11.2828C79.0117 10.6223 79.2993 9.96173 79.6006 9.30121C80.0115 8.39805 80.4224 7.52185 80.8059 6.64565C81.203 5.78293 81.5591 4.89325 81.8878 4.00356C81.9563 3.80136 82.0385 3.59916 82.1481 3.39696C82.2576 3.19476 82.3672 3.00604 82.5042 2.81732C82.6274 2.6286 82.7781 2.45336 82.9287 2.30508C83.0794 2.14332 83.2574 2.00852 83.4492 1.8872C83.5861 1.76588 83.7231 1.69848 83.8463 1.67152C83.9833 1.64456 84.134 1.60412 84.2983 1.56368C84.4764 1.63108 84.6407 1.71196 84.7914 1.76588C84.942 1.83328 85.0927 1.91416 85.2296 2.03548C85.3392 2.0894 85.3666 2.19724 85.2981 2.34552C85.2159 2.52076 85.1338 2.68252 85.079 2.84428C85.0242 3.00604 84.9557 3.1678 84.8872 3.32956C84.8325 3.39696 84.8325 3.45088 84.9009 3.49132C84.9283 3.51828 84.9694 3.51828 85.0242 3.49132C85.079 3.46436 85.1201 3.42392 85.1338 3.38348C85.1748 3.32956 85.2022 3.27564 85.2433 3.18128C85.2707 3.04648 85.3529 2.9656 85.4762 2.95212C85.5994 2.95212 85.6953 2.88472 85.7364 2.77688L85.8733 2.84428C85.9555 2.88472 85.9829 2.99256 85.9418 3.15432C85.8459 3.41044 85.7364 3.65308 85.6268 3.89572C85.5173 4.13836 85.394 4.39448 85.2433 4.63713C84.942 5.14937 84.6544 5.66161 84.3942 6.17385C84.134 6.67261 83.8737 7.21181 83.6409 7.76449V7.75101ZM85.4762 3.34304V3.41044C85.4762 3.41044 85.4899 3.41044 85.5036 3.39696C85.5036 3.39696 85.5309 3.38348 85.5446 3.35652C85.5994 3.34304 85.5994 3.31608 85.5446 3.27564C85.5446 3.26216 85.5309 3.24868 85.5036 3.2352C85.4899 3.26216 85.4762 3.3026 85.4899 3.35652L85.4762 3.34304ZM85.3392 3.55872H85.4077L85.4214 3.51828C85.394 3.53176 85.3529 3.54524 85.3392 3.55872ZM9.97062 37.5958L11.6552 37.0835C11.3402 36.9757 10.7787 37.1374 10.4637 37.2453C10.3267 37.2992 9.97062 37.407 9.97062 37.5823V37.5958ZM3.99921 42.1924L3.86225 40.6692C2.82136 40.5748 2.91723 41.8554 3.6705 42.3272C3.76637 42.3542 3.65681 41.9228 3.99921 42.2059V42.1924ZM4.45117 40.6288C4.60183 40.6557 7.026 39.7795 7.43688 39.6312C9.79257 38.8359 12.1209 37.9328 14.504 37.2048C14.5724 36.8544 14.3396 36.9218 14.0794 36.9757C12.2989 37.407 10.135 38.3911 8.34081 38.9842C7.38209 39.3077 6.40968 39.6582 5.42358 39.8739C5.39619 39.6852 5.64271 39.7121 5.77967 39.6582C8.42298 38.6337 11.2033 37.8923 13.8466 36.8813L14.1068 36.5713L3.86225 40.0761C4.06768 40.1165 4.38269 40.6153 4.43747 40.6288H4.45117ZM9.06669 40.1435C7.86145 40.3457 6.77947 40.9523 5.62902 41.2758C5.50575 41.3162 4.93053 41.5454 4.93053 41.2758L14.7779 37.771L14.4629 37.3396L4.54704 40.777C4.49226 41.1545 4.84835 41.3836 5.0127 41.6802L9.09408 40.1435H9.06669ZM13.5316 38.7416L14.7642 38.2293C13.285 38.6202 11.6278 39.1055 10.1898 39.6582C10.0528 39.7121 9.80627 39.6986 9.83366 39.8739L13.5316 38.7281V38.7416ZM17.654 44.8345C18.3388 44.5649 19.2975 43.9179 19.5715 43.2169C18.3114 44.511 17.476 44.7806 15.7503 44.1066C15.5038 44.0122 14.4766 43.4056 14.3944 43.473C14.1342 43.6887 15.3668 44.1875 15.4764 44.2549L17.3801 44.7402C15.6133 45.2928 14.2711 44.0257 12.97 43.0821C12.8468 43.19 13.7781 43.9583 13.874 44.0392C14.997 44.8884 16.2981 45.3872 17.6677 44.8345H17.654ZM16.1886 40.0222C17.0788 39.2403 16.6131 37.9597 16.4488 36.9622C16.216 36.9352 16.3255 37.2453 16.3392 37.3936C16.4351 38.3776 16.5173 39.0516 16.2023 40.0222H16.1886ZM16.709 33.39C17.3253 34.0236 17.8321 34.6302 18.1608 35.4659L18.7908 37.8519C18.9277 37.0026 18.6264 36.0051 18.2977 35.2098C17.9964 34.5088 17.476 33.6731 16.7227 33.39H16.709ZM17.2979 33.39C17.5308 33.5652 17.7773 33.8888 17.9827 34.1179L18.914 36.3286C18.8867 35.9242 18.8593 35.412 18.7497 35.0211C18.7086 34.8863 18.2977 33.7809 18.2566 33.727C18.106 33.5113 17.161 33.08 16.846 33.1474C16.8323 33.363 17.1336 33.2687 17.2979 33.39ZM17.8732 47.2879C19.8865 47.207 21.8039 45.6568 22.7763 44.0122C25.0909 40.1165 24.1185 34.5088 21.9135 30.7614C19.8865 27.3105 16.572 25.0863 12.4222 26.6365L12.9426 26.8926C12.0661 26.65 11.2854 27.3105 10.7376 27.9171C11.1759 27.7688 11.4772 27.4318 11.9428 27.2566C13.285 26.7443 14.6135 27.1083 15.9146 27.5397L15.7914 27.7958C16.0242 27.7958 16.2707 27.7958 16.4762 27.9171C17.6266 28.5641 19.3797 31.1793 19.7906 32.4599C20.5713 34.8998 20.7493 36.4769 20.7767 37.2183C21.1465 36.5039 20.9547 35.7086 20.8726 34.738L20.8315 34.037C20.941 34.0505 21.1876 34.0101 21.215 34.037C21.3793 34.1718 21.8176 37.0835 22.0641 37.4744L21.9956 36.2073L22.2422 37.1779C22.3243 37.5149 22.4065 37.461 22.3928 37.1509C22.3791 36.4904 22.1189 35.8434 22.1326 35.1828L22.7215 37.2183L22.5298 35.439L22.79 35.8164L23.1735 35.3042L23.2967 35.6816L23.0365 33.9022L23.5159 35.6546C24.2828 39.6717 23.4748 44.9963 19.188 46.7487L17.8458 47.2744L17.8732 47.2879ZM25.5292 39.0651C25.5018 39.5369 25.31 40.1165 25.2689 40.6018C25.2689 40.7501 25.1731 41.0736 25.3922 41.0466C26.1866 36.6387 25.1594 31.7589 22.4065 28.1732C22.8722 29.2247 23.5707 30.1683 24.0226 31.2332C25.0361 33.6057 25.6661 36.4904 25.5155 39.0651H25.5292ZM27.9807 35.8838C28.556 35.6412 28.0492 35.749 27.9944 35.5872C27.7342 34.765 27.652 33.5787 27.3781 32.6486C26.4605 29.5078 24.4198 26.0703 21.4752 24.4393C18.9825 23.0508 15.7092 22.9834 13.3535 24.6549C13.8466 24.7089 14.3396 24.1157 14.8327 24.1023C15.1751 24.0888 16.257 24.1831 16.6405 24.2236C17.339 24.3045 17.9964 24.8032 18.6675 24.5875L16.8734 24.1157L15.4216 23.954L16.7912 23.5765C17.9006 23.4687 18.9004 23.7383 19.9686 23.954C19.996 24.1831 19.681 24.0753 19.5441 24.0483C18.7497 23.927 17.9416 23.59 17.1062 23.6979L16.7227 23.8057C16.3803 23.9135 18.8456 24.2775 19.1058 24.4527C19.2291 24.5336 19.1743 24.7763 19.3249 24.8976C19.5441 25.0998 20.3384 25.302 20.5849 25.5177C20.9547 25.8412 22.1874 27.2566 22.5709 27.7149C24.2828 29.7908 25.2553 32.5947 25.8853 35.1694C26.1866 35.439 26.077 35.2368 26.0359 35.0211C25.94 34.4549 25.8168 34.1584 25.7209 33.5518C25.9127 33.5518 26.0633 34.374 26.1044 34.428C26.214 34.6167 26.5016 34.1988 26.4057 33.754C26.3509 33.3091 26.2961 33.0665 26.2277 32.6621C26.2003 32.5408 26.1318 32.1903 26.3509 32.2307L26.9946 34.6571C27.0631 33.8483 26.529 32.9182 26.4742 32.1768C26.4742 32.0285 26.4331 31.9611 26.5975 31.9881C26.8851 32.6486 27.4055 33.3091 27.5836 34.0236C28.6792 38.4315 27.6657 45.0637 22.8448 46.9644L20.7767 47.5305C26.9125 47.4631 28.8162 40.8849 28.0218 35.8838H27.9807ZM28.3779 46.1421C27.8164 45.9938 27.6246 46.7082 27.2138 46.3982C27.2138 46.6274 27.159 46.8565 26.9535 46.9644L24.7622 47.8001C26.0496 47.7867 27.5562 47.1127 28.3916 46.1421H28.3779ZM31.8841 40.1435L31.2952 41.9228L31.3636 42.3138C31.528 41.5993 31.8978 40.8984 31.8841 40.1435ZM22.7352 20.6514C22.3517 20.5435 22.8722 21.0153 22.4887 20.9075C21.9135 20.7457 21.393 20.5031 20.763 20.4357C19.3934 20.3009 17.9553 20.6918 16.709 21.231C17.339 21.2849 17.9416 21.0153 18.5853 21.0423C19.3797 21.0693 20.5576 21.4332 21.2424 21.6085C21.6669 21.7163 21.9408 22.2016 22.4065 22.3903C23.6802 22.8891 24.1322 23.1587 25.132 24.1697C25.31 24.3449 25.8442 24.965 25.7209 25.1267L25.2005 24.6145C25.0224 24.9919 25.625 25.3424 25.8442 25.639C28.9531 30.047 30.4871 35.5738 29.5558 40.9253L29.9393 39.0786C29.994 37.2588 29.9666 35.5738 29.6242 33.7809C29.3914 32.5812 28.8573 31.4084 28.7751 30.2222C29.1449 30.1548 28.9942 30.3031 29.0627 30.5053C29.4051 31.3545 29.5695 32.2981 29.8708 33.1608C30.1995 33.1608 29.3366 31.1254 29.5421 30.8692C29.7749 30.5727 29.7749 31.2062 29.9256 31.1254L30.0488 30.7479C30.3638 31.2871 30.4323 32.0555 30.9528 32.406C30.9391 31.8802 30.624 31.4489 30.5693 30.9366C30.5282 30.6131 30.6104 30.5862 30.7199 30.9232C30.7747 31.0714 30.7473 31.395 30.9664 31.3815C31.076 31.058 30.4871 30.4514 30.8432 30.2357C31.0897 31.1523 31.4184 32.0959 31.5006 33.0395L31.7608 32.5273L32.1443 35.0076V38.5798H32.2676C33.0208 32.3655 29.3777 22.5386 22.7352 20.6783V20.6514ZM56.1806 30.7479H56.1532C56.1258 30.8558 56.0847 30.9636 56.0574 31.0849C56.03 31.2062 56.0026 31.3141 55.9889 31.4084C55.9752 31.4489 55.9615 31.5028 55.9341 31.5432C55.9204 31.5972 55.9615 31.6241 56.071 31.6241C56.0984 31.4624 56.1395 31.3141 56.1806 31.1793C56.2354 31.031 56.2217 30.8962 56.1806 30.7479ZM56.3176 30.5592L56.2902 30.357C56.2217 30.4109 56.1669 30.4514 56.1806 30.4648C56.1669 30.5188 56.1669 30.5727 56.1806 30.6131C56.1943 30.6536 56.208 30.694 56.208 30.721C56.2902 30.6805 56.3313 30.6266 56.3176 30.5592ZM56.3997 30.1413C56.3997 30.1413 56.3724 30.0604 56.3176 29.993C56.3176 30.0065 56.3176 30.02 56.3176 30.0335C56.3176 30.0335 56.3176 30.0604 56.3176 30.0739C56.3039 30.1278 56.3039 30.1818 56.3176 30.2222C56.3176 30.2492 56.3313 30.2761 56.3313 30.3031C56.3861 30.2222 56.4134 30.1548 56.4134 30.1278L56.3997 30.1413ZM56.4819 29.656C56.4819 29.656 56.4545 29.5617 56.4408 29.5347L56.3861 29.6021C56.3861 29.6021 56.3861 29.6695 56.4134 29.683C56.4134 29.6965 56.4271 29.7099 56.4271 29.7369L56.4819 29.6695V29.656ZM56.5915 29.1842L56.523 29.1438V29.1977C56.523 29.1977 56.5093 29.2112 56.523 29.2247C56.523 29.2382 56.5504 29.2651 56.5915 29.2921C56.5915 29.2786 56.5915 29.2516 56.5915 29.2382C56.5915 29.2112 56.5915 29.1977 56.5915 29.1842ZM56.6737 28.8203C56.6737 28.8203 56.6737 28.7664 56.6463 28.7529C56.6463 28.7529 56.6326 28.7259 56.6189 28.6855C56.5915 28.7664 56.5641 28.8203 56.5778 28.8337C56.5778 28.8472 56.5778 28.8607 56.5915 28.8742C56.5915 28.8742 56.6052 28.8877 56.6052 28.9146C56.6463 28.8607 56.66 28.8337 56.66 28.8203H56.6737ZM56.7832 28.3754L56.7421 28.335C56.7421 28.335 56.6874 28.4159 56.6874 28.4293C56.6874 28.4428 56.6874 28.4563 56.7148 28.4428C56.7285 28.4428 56.7421 28.4428 56.7421 28.4563C56.7558 28.4294 56.7695 28.4024 56.7695 28.362L56.7832 28.3754ZM56.9339 27.9441C56.9339 27.9441 56.8654 27.9036 56.8654 27.8902C56.8654 27.8902 56.8654 27.8767 56.8243 27.8632C56.7832 27.9171 56.7695 27.9576 56.7695 27.9845C56.7695 28.025 56.7969 28.0519 56.838 28.0654C56.838 28.0789 56.8654 28.0384 56.9202 27.9306L56.9339 27.9441ZM56.9887 27.5936H56.9613L56.9339 27.6071C56.9339 27.6205 56.9339 27.634 56.9476 27.6475C56.9476 27.6475 56.975 27.6475 56.9887 27.5936ZM57.0845 27.2431C57.0845 27.2431 57.0572 27.2161 57.0435 27.2027C57.0298 27.2296 57.0161 27.2566 57.0161 27.297L57.0572 27.3375C57.0572 27.3375 57.0845 27.2835 57.0845 27.2431ZM57.2078 26.8926C57.2078 26.8926 57.2078 26.8657 57.1804 26.8791L57.153 26.9196C57.153 26.9196 57.1941 26.9465 57.2078 26.9061V26.8926ZM61.659 14.8819C61.659 14.8819 61.7001 14.9089 61.7275 14.9089C61.7275 14.8954 61.7275 14.8819 61.7275 14.8685C61.7275 14.828 61.7001 14.8415 61.6727 14.8819H61.659ZM52.6197 24.9785L53.9756 24.5067C54.0441 24.2775 54.0988 24.0349 54.181 23.8057H54.0441L54.1947 23.7653C54.2358 23.6439 54.2632 23.5226 54.3043 23.4148C54.3043 23.4148 54.3043 23.4148 54.3043 23.4013L50.6749 24.601C50.6475 24.4123 50.894 24.4393 51.031 24.3853C52.1129 23.9675 53.236 23.6305 54.3591 23.28C54.3728 23.2261 54.4001 23.1856 54.4138 23.1317L46.4839 25.7468C46.6346 25.7603 46.7852 25.7738 46.9222 25.8007L48.1137 25.3424L48.73 25.2481C48.7574 25.4368 48.5109 25.4098 48.3739 25.4637C48.0179 25.5985 47.6481 25.7199 47.2783 25.8412C47.6344 25.8951 48.0042 25.949 48.3603 26.0164C48.7437 26.1108 49.0724 26.2456 49.3738 26.4073C50.8666 25.9221 52.3595 25.4368 53.8523 24.938C53.8797 24.8571 53.9071 24.7763 53.9208 24.6819C53.4825 24.8032 53.0443 24.9111 52.606 24.9785H52.6197ZM42.471 29.1438C42.471 29.1438 42.5258 29.1168 42.5669 29.1168V29.0629C42.5669 29.0629 42.5532 29.0359 42.5258 29.0494C42.5121 29.0494 42.4984 29.0494 42.4847 29.009C42.471 29.009 42.4573 29.0494 42.4573 29.1034V29.1573L42.471 29.1438ZM42.6628 29.0764C42.6628 29.0764 42.7586 29.0494 42.7997 29.0225C42.9367 28.9686 43.1832 28.982 43.1558 28.8068C43.0325 28.8338 42.8956 28.8742 42.7723 28.9012C42.7312 28.9551 42.6764 29.009 42.6628 29.0764ZM42.1834 30.0335C42.1834 30.0335 42.1697 30.0065 42.1423 29.993L42.1149 30.0335V30.0604L42.1834 30.047V30.0335ZM42.4162 29.9661H42.4436L43.2791 29.5752L42.6628 29.6695L42.471 29.7504C42.4436 29.8178 42.4299 29.8987 42.4025 29.9661H42.4162ZM43.5119 26.9735C43.5119 26.9735 43.4297 26.9196 43.4023 26.8926C43.3749 26.8657 43.3202 26.8387 43.238 26.8387C43.238 26.8926 43.238 26.9331 43.238 26.9735C43.238 27.0139 43.238 27.0409 43.238 27.0544C43.238 27.0948 43.2928 27.1083 43.4023 27.1083C43.4434 27.1083 43.4708 27.0813 43.4845 27.0544C43.4982 27.0274 43.5119 27.014 43.5119 26.987V26.96V26.9735ZM53.058 16.4995C53.0853 16.6074 53.1264 16.7557 53.1812 16.9174C53.3456 16.8365 53.414 16.7422 53.4003 16.6343C53.4003 16.5535 53.4003 16.4995 53.4277 16.4456C53.2634 16.3917 53.1401 16.3243 53.058 16.2165C53.0443 16.3108 53.0306 16.4052 53.058 16.4995ZM44.0323 23.6979C44.0323 23.6979 44.0323 23.6709 44.0597 23.6574H44.0323C43.9502 23.6574 43.9502 23.6844 44.0323 23.6979ZM43.9091 24.6145C43.9091 24.6145 43.8954 24.6549 43.9091 24.6549C43.9365 24.6549 43.9365 24.6549 43.9502 24.6819C43.9913 24.6549 44.0187 24.628 44.0323 24.628C44.046 24.628 44.0871 24.601 44.1145 24.5471C44.3884 24.1966 44.6897 23.8596 44.9911 23.5226C45.2924 23.1856 45.6211 22.8351 45.9909 22.4847C46.2374 22.2555 46.4839 22.0263 46.7441 21.7702C46.9907 21.5141 47.2235 21.2715 47.4563 21.0423C47.922 20.6244 48.3329 20.1931 48.7163 19.7617C48.8944 19.5999 49.045 19.4247 49.1957 19.236C49.3464 19.0473 49.5244 18.8585 49.7298 18.6429C49.8805 18.4676 50.0175 18.2924 50.127 18.1171C50.2503 17.9419 50.3736 17.7532 50.5242 17.5645C50.5653 17.4971 50.5927 17.4297 50.6201 17.3757C50.6475 17.3083 50.6886 17.2409 50.7433 17.1466C50.6338 17.1466 50.5516 17.1466 50.5105 17.1196C50.4557 17.1196 50.4009 17.1196 50.3325 17.1196C50.2503 17.1196 50.1133 17.1331 49.9353 17.187C49.6888 17.2679 49.4559 17.3353 49.2094 17.4027C48.9766 17.4701 48.7437 17.5779 48.5383 17.7397C48.1685 17.8475 47.8124 18.0093 47.47 18.1845C47.1139 18.3733 46.7715 18.535 46.4291 18.6968C46.3333 18.7507 46.2374 18.7911 46.1826 18.8451C46.1141 18.899 46.0456 18.9394 45.9635 18.9799C45.8265 19.0473 45.7443 19.1416 45.7169 19.2764C45.5115 19.9504 45.2924 20.557 45.0458 21.1097C44.8404 21.7028 44.635 22.2959 44.4569 22.8756C44.2789 23.4552 44.1008 24.0349 43.9228 24.601L43.9091 24.6145ZM43.7447 24.3584C43.7447 24.3584 43.7721 24.4123 43.8132 24.3988C43.8132 24.3584 43.8132 24.3314 43.8406 24.3045L43.7721 24.264C43.7721 24.264 43.7721 24.291 43.7721 24.3045C43.7721 24.3045 43.7721 24.3314 43.7721 24.3449L43.7447 24.3584ZM43.6352 24.7358H43.6626C43.6626 24.7358 43.7173 24.7223 43.7173 24.6819L43.6489 24.6415C43.6489 24.6415 43.6215 24.6954 43.6215 24.7358H43.6352ZM43.5119 25.1537H43.5804C43.5804 25.1537 43.6078 25.1133 43.6215 25.1133C43.6215 25.1133 43.6215 25.0728 43.6215 25.0189L43.553 24.9785C43.553 24.9785 43.4982 25.0728 43.5119 25.1537ZM43.3886 25.4098C43.3886 25.4098 43.4571 25.4637 43.4434 25.3963C43.4434 25.3829 43.4434 25.3694 43.416 25.3829L43.3886 25.4233V25.4098ZM43.1421 26.1782C43.1421 26.1782 43.1695 26.2456 43.2106 26.2591C43.2106 26.2186 43.2106 26.2051 43.2106 26.1917C43.2106 26.1917 43.2106 26.1647 43.2106 26.1512H43.1832L43.1558 26.1647H43.1284L43.1421 26.1782ZM45.9087 25.4772C48.8122 24.5067 51.7295 23.5361 54.633 22.5521C54.8247 22.0129 55.0165 21.4737 55.2356 20.9345C55.4821 20.3009 55.7423 19.6808 56.0163 19.0607C56.2902 18.4407 56.6052 17.8341 56.9613 17.2544C57.0982 17.0118 57.2489 16.7691 57.3859 16.5265C57.5365 16.2839 57.6735 16.0412 57.8104 15.7986C57.7693 15.7986 57.7283 15.7851 57.6735 15.7581C57.6324 15.7312 57.5776 15.7312 57.5091 15.7581C57.4269 15.7581 57.2763 15.7986 57.0845 15.866C56.9202 15.9199 56.7148 15.9603 56.4682 15.9738C56.1121 16.0277 55.7834 16.1356 55.4958 16.2839C55.2904 16.3782 55.0986 16.4591 54.9206 16.513C54.7425 16.5669 54.5645 16.6343 54.4001 16.7017C54.2769 16.7422 54.181 16.7557 54.0988 16.7422C54.0167 16.7422 53.9482 16.7152 53.8523 16.6748C53.8934 16.6478 53.9208 16.6209 53.9482 16.5939C53.9756 16.5669 54.0167 16.54 54.0441 16.513C54.003 16.4726 53.9482 16.4726 53.9071 16.513C53.8523 16.5535 53.8112 16.5669 53.7701 16.5535C53.729 16.5265 53.6743 16.513 53.6195 16.513C53.6058 16.5939 53.5784 16.6748 53.5373 16.7691C53.3319 17.4027 52.9758 18.0363 52.469 18.6429C52.3047 18.899 52.1403 19.1281 51.9623 19.3438C51.7842 19.5595 51.5925 19.7752 51.387 20.0043C51.2912 20.1257 51.1816 20.247 51.0583 20.3683C50.9351 20.4896 50.8255 20.5975 50.7296 20.7053C50.6201 20.8266 50.4968 20.9614 50.3872 21.0827C50.2777 21.2041 50.1544 21.3254 50.0175 21.4467C49.8668 21.5815 49.7161 21.7298 49.5929 21.8511C49.4559 21.9859 49.319 22.1207 49.1957 22.2555C48.4972 22.8756 47.8124 23.5226 47.1276 24.1966C46.9222 24.4123 46.7167 24.6145 46.525 24.8302C46.3333 25.0324 46.1415 25.2481 45.9224 25.4637C45.9224 25.4637 45.895 25.4907 45.8813 25.5042L45.9087 25.4772ZM35.5135 30.5862L35.9655 30.9636C36.8968 30.6131 37.8418 30.2896 38.7731 29.9526C38.9238 29.4808 39.0744 29.009 39.2114 28.5507C39.1292 28.5911 39.0059 28.6046 38.9238 28.645C38.3485 28.8742 37.6911 29.0764 37.0748 29.1842C37.0474 28.9955 37.294 29.0225 37.4309 28.9686C37.9924 28.7529 38.6499 28.5372 39.2525 28.4293C39.2799 28.3215 39.321 28.2137 39.3483 28.1058L34.4863 29.71C34.7465 30.3435 35.2122 30.0874 35.3354 30.8558C35.4176 31.3141 35.2807 31.5702 35.267 32.0016C35.4587 31.9072 35.5683 31.3141 35.5957 31.1119C35.6231 30.9232 35.5409 30.7749 35.5272 30.5996L35.5135 30.5862ZM41.8684 31.2332L41.8958 31.1658L41.8547 31.1254C41.8547 31.1254 41.8273 31.1388 41.8273 31.1658C41.8136 31.1928 41.8273 31.2197 41.8684 31.2332ZM41.7999 31.5298C41.7999 31.5298 41.7999 31.5028 41.7588 31.5028C41.7314 31.5028 41.7314 31.4758 41.7177 31.4489L41.6629 31.5163C41.6629 31.5163 41.6766 31.5972 41.704 31.6106C41.704 31.6241 41.7451 31.6106 41.8273 31.6106C41.8273 31.5702 41.8136 31.5432 41.7862 31.5432L41.7999 31.5298ZM41.9917 30.8827C41.9917 30.8827 42.0464 30.8018 42.0464 30.7884C42.0464 30.7479 42.019 30.721 41.978 30.694C41.978 30.7075 41.978 30.7344 41.9369 30.7614C41.9095 30.7884 41.8958 30.8153 41.8958 30.8288C41.8958 30.8692 41.9369 30.8827 41.9917 30.8827ZM41.526 32.1633L41.4712 32.2038C41.4712 32.2712 41.4986 32.3116 41.5123 32.2981C41.5123 32.3116 41.526 32.3251 41.5671 32.2981C41.5808 32.2981 41.5945 32.2981 41.6082 32.2981V32.2307C41.6082 32.2307 41.5808 32.1768 41.5671 32.1768C41.5397 32.1768 41.5397 32.1768 41.526 32.1498V32.1633ZM41.2795 32.9317L41.2521 32.9721C41.2521 32.9721 41.2932 32.9721 41.3343 32.9721C41.3343 32.9721 41.3479 32.9721 41.3616 32.9721C41.3479 32.9452 41.3206 32.9452 41.2795 32.9452V32.9317ZM39.4853 35.4659C39.4853 35.4659 39.5127 35.4659 39.5264 35.5064C39.5401 35.4659 39.5675 35.439 39.5812 35.439V35.2772L39.5264 35.2637H39.499C39.499 35.2637 39.4442 35.3042 39.4442 35.3176C39.4442 35.3311 39.4442 35.3581 39.4442 35.385C39.4442 35.412 39.4442 35.439 39.4716 35.4524C39.4716 35.4659 39.4716 35.4794 39.499 35.4659H39.4853ZM39.4305 35.7355L39.3757 35.776C39.3757 35.776 39.362 35.8434 39.3757 35.8434C39.3757 35.8434 39.3894 35.8568 39.3894 35.8838C39.4031 35.8568 39.4168 35.8434 39.4305 35.8434C39.4305 35.8434 39.4579 35.8299 39.4716 35.8029C39.4442 35.8029 39.4305 35.7625 39.4305 35.7355ZM39.6223 36.1669C39.6223 36.1669 39.5538 36.2478 39.5264 36.2747C39.499 36.3017 39.4716 36.3286 39.4579 36.3556C39.4305 36.4365 39.3346 36.5713 39.1977 36.76C39.0607 36.9487 38.9786 37.0835 38.9375 37.1509V37.2588C39.047 37.1914 39.1292 37.1374 39.1977 37.1105C39.2662 37.0835 39.3483 37.0296 39.4168 36.9757C39.5127 36.8544 39.5538 36.787 39.5538 36.7735C39.5538 36.6791 39.5812 36.5848 39.5812 36.4904C39.5812 36.396 39.6086 36.2882 39.6086 36.1804L39.6223 36.1669ZM50.7844 28.0384C50.757 27.9441 50.6612 27.8632 50.5105 27.7823C50.5105 27.8767 50.4968 27.9576 50.5105 28.0115C50.5105 28.0654 50.5105 28.1328 50.5379 28.2271C50.5379 28.2676 50.5379 28.308 50.5379 28.362C50.5379 28.4159 50.5379 28.4698 50.5653 28.5237C50.5653 28.5776 50.5379 28.645 50.4694 28.7124C50.4009 28.7933 50.4283 28.8338 50.5379 28.8607C50.6749 28.7664 50.7433 28.6585 50.7296 28.5507C50.7296 28.4698 50.757 28.4024 50.8392 28.362C50.8392 28.2406 50.8392 28.1328 50.8118 28.0519L50.7844 28.0384ZM46.7989 28.9012L42.2656 30.4514C42.1971 30.7075 42.1149 30.9771 42.0601 31.2467C42.019 31.3141 42.0054 31.3815 41.9917 31.4354C41.978 31.4893 41.9369 31.5567 41.8547 31.6106C41.8547 31.6915 41.8547 31.7454 41.8547 31.7859C41.8547 31.8263 41.8547 31.8668 41.841 31.9072C41.8273 31.9476 41.7999 31.9746 41.7588 31.9881V31.8802C41.7588 31.8802 41.6766 31.8398 41.6766 31.8128L41.6219 31.8533C41.6219 31.8533 41.6356 31.9072 41.6629 31.9207C41.6629 31.9342 41.663 31.9476 41.6903 31.9342C41.704 31.9342 41.7314 31.9342 41.7588 31.9746C41.7588 32.042 41.7588 32.0959 41.7451 32.1498C41.7451 32.2172 41.7177 32.2712 41.6493 32.3116C41.6493 32.3116 41.6493 32.3116 41.6629 32.3116C41.6629 32.3925 41.6493 32.4599 41.6629 32.5408C41.6082 32.5542 41.5534 32.5677 41.526 32.5677C41.4986 32.5677 41.4712 32.5677 41.4438 32.5677C41.4438 32.5812 41.4438 32.6082 41.4438 32.6216C41.4438 32.6486 41.4438 32.6621 41.4438 32.6756L41.5534 32.7834C41.5534 32.7834 41.526 32.8912 41.4712 32.9586C41.4712 33.0665 41.4575 33.1608 41.4438 33.2687C41.4438 33.3765 41.3479 33.4844 41.1973 33.5922C41.1973 33.6057 41.1973 33.6326 41.1699 33.6461C41.1562 33.6596 41.1425 33.6731 41.1425 33.7C41.1973 33.7809 41.1973 33.8618 41.1425 33.9696C41.1014 34.0775 41.0603 34.1718 41.0329 34.2797C40.8549 34.5897 40.7042 34.9267 40.581 35.2772C40.4577 35.6277 40.3344 35.9782 40.1975 36.3286L40.4166 36.2612C40.6768 35.9782 40.9508 35.6951 41.2247 35.412C41.4986 35.1289 41.7725 34.8728 42.0464 34.6167C42.2519 34.428 42.4436 34.2392 42.5943 34.064C42.7449 33.8888 42.9093 33.7135 43.101 33.5248C43.3749 33.2687 43.6352 32.9991 43.8817 32.716C44.1419 32.4194 44.4021 32.1498 44.6624 31.8802C44.9089 31.6511 45.128 31.4219 45.3198 31.1658C45.4978 30.9097 45.6896 30.667 45.8676 30.3974C46.073 30.1278 46.2648 29.8582 46.4291 29.5752C46.5661 29.346 46.703 29.1168 46.84 28.8877L46.7989 28.9012ZM52.4964 26.3804L50.3599 27.014L50.3051 27.0409C50.3051 27.0409 50.3872 27.1353 50.442 27.1757L52.5101 26.3804H52.4964ZM53.5373 26.0703C53.5373 26.0703 53.5647 25.9895 53.5647 25.9355C53.5647 25.9355 53.5647 25.9221 53.5647 25.9086C53.4551 25.949 53.3319 25.976 53.2223 26.0299C53.0853 26.0838 52.8388 26.0703 52.8662 26.2456C53.0853 26.1917 53.3045 26.1243 53.5236 26.0703H53.5373ZM58.5911 23.3204C58.5911 23.3204 58.5911 23.2261 58.55 23.1991C58.5363 23.253 58.5226 23.2935 58.5089 23.3474C58.5363 23.3474 58.5637 23.3204 58.6048 23.3204H58.5911ZM59.3307 22.6599C59.4539 22.6869 60.084 22.5251 60.7961 22.3229C60.8509 22.0803 60.892 21.8241 60.9605 21.5815C61.029 21.3119 61.0974 21.0423 61.1659 20.7727C60.4948 20.9479 59.8237 21.1636 59.1937 21.3928C59.1663 21.4467 59.1526 21.5141 59.1252 21.568C59.0568 21.7298 59.002 21.905 58.9472 22.0668L59.2485 22.1746L58.9883 22.3633C59.0978 22.4577 59.1937 22.6195 59.3444 22.6599H59.3307ZM63.2477 13.9518C63.2477 13.9518 63.1518 13.9923 63.097 14.0057C62.9875 14.0462 62.8642 14.1001 62.7547 14.1945C62.6725 14.2619 62.5903 14.2888 62.5081 14.3158C62.4259 14.3293 62.3301 14.3562 62.2342 14.3832C62.0288 14.4506 61.9055 14.5719 61.8644 14.7471C61.8644 14.7876 61.8644 14.8145 61.8233 14.828C61.7959 14.8415 61.7822 14.8685 61.7548 14.8954C61.7412 14.9359 61.7412 14.9628 61.7548 14.9898C61.7548 15.0167 61.7548 15.0437 61.7548 15.0572C61.6179 15.3807 61.4946 15.6907 61.3577 16.0143C61.2344 16.3378 61.0974 16.6613 60.9605 16.9713C60.9331 17.0792 60.892 17.1735 60.8372 17.2544C60.7824 17.3488 60.7414 17.4431 60.714 17.5375C60.3305 18.4676 59.9607 19.3843 59.6046 20.3009C59.5361 20.5031 59.4539 20.6918 59.3718 20.8805C59.9196 20.6918 60.4674 20.5031 61.029 20.3144L61.1796 20.6918C61.2207 20.5031 61.2755 20.3279 61.3166 20.1391C61.4535 19.4517 61.6316 18.7777 61.837 18.1037C62.0425 17.4297 62.2616 16.7691 62.4807 16.1086C62.6862 15.4346 62.9053 14.7876 63.1518 14.154C63.1792 14.0731 63.2203 13.9923 63.2477 13.9114V13.9518ZM65.9458 13.0621C65.9458 13.0621 65.9458 13.0891 65.9869 13.1026L66.0143 13.0621C66.0143 13.0621 66.0143 13.0352 66.0006 13.0352C66.0006 13.0352 65.9869 13.0352 65.9869 13.0082L65.9595 13.0487L65.9458 13.0621ZM65.7951 13.4126C65.7951 13.4126 65.8362 13.4665 65.9047 13.5205C65.9047 13.48 65.9047 13.4396 65.9595 13.3991C65.9595 13.3857 65.9595 13.3722 65.9458 13.3587C65.9458 13.3587 65.9321 13.3452 65.9321 13.3183C65.891 13.3722 65.8499 13.3991 65.8088 13.4126H65.7951ZM65.7267 14.2349C65.713 14.0866 65.713 14.0057 65.7267 13.9653C65.7815 13.9518 65.8088 13.8979 65.8088 13.8035V13.7766C65.8088 13.7766 65.7677 13.7901 65.7677 13.8035C65.7677 13.8035 65.7404 13.8305 65.7267 13.8305V13.9653C65.5212 14.0731 65.5212 14.1675 65.7267 14.2349ZM65.5075 14.6123C65.5075 14.6797 65.5349 14.6932 65.576 14.6528C65.576 14.6123 65.576 14.5989 65.5486 14.5989C65.5486 14.5989 65.5349 14.5989 65.5349 14.5719L65.5075 14.6123ZM65.3706 15.0572C65.3706 15.0572 65.3706 15.165 65.3843 15.2324C65.4801 15.1515 65.5212 15.0841 65.5075 15.0437C65.4938 14.9898 65.4527 14.9359 65.4117 14.855C65.3843 14.9359 65.3706 15.0033 65.3706 15.0572ZM65.2747 15.4211V15.4751C65.2747 15.4751 65.2884 15.502 65.3158 15.4885C65.3432 15.4077 65.3706 15.3672 65.3706 15.3942V15.2729C65.3706 15.2729 65.2747 15.3537 65.2747 15.4211ZM65.1651 15.8121C65.1651 15.8121 65.1925 15.866 65.2336 15.866L65.2884 15.7986C65.2884 15.7986 65.2884 15.7716 65.2747 15.7581C65.2747 15.7581 65.261 15.7312 65.2473 15.6907C65.1925 15.7042 65.1514 15.7447 65.1651 15.7986V15.8121ZM64.7269 17.4971L64.7543 17.7397C64.809 17.6723 64.8638 17.6184 64.9049 17.6049L64.8775 17.3083C64.8775 17.3083 64.9186 17.2679 64.9323 17.2544C64.946 17.2409 64.9734 17.214 64.9871 17.2005L64.9597 16.9309C65.0556 16.877 65.1103 16.8096 65.0966 16.7287L65.0693 16.4861C65.1925 16.4187 65.2336 16.3513 65.2062 16.2973C65.1788 16.2434 65.1377 16.1895 65.0966 16.1491C65.0556 16.203 65.0419 16.2569 65.0556 16.3108C65.0556 16.3782 65.0556 16.4321 65.0693 16.4861C65.0556 16.513 65.0282 16.54 65.0008 16.5669C64.9734 16.5939 64.9597 16.6209 64.9597 16.6613C64.946 16.7152 64.946 16.8096 64.9597 16.9309L64.8775 17.0387C64.8775 17.0387 64.8501 17.1331 64.8638 17.187C64.8638 17.2409 64.8638 17.2814 64.8638 17.3218C64.8501 17.3488 64.8227 17.3757 64.809 17.3892C64.7953 17.4162 64.768 17.4566 64.7269 17.4971ZM63.8777 22.6869C63.9462 22.2959 64.001 21.9185 64.0558 21.5545C64.1105 21.1906 64.1927 20.7997 64.3023 20.4087C64.3297 20.2605 64.3571 20.1122 64.3845 19.9774C64.4119 19.8426 64.4529 19.6943 64.494 19.5325C64.5214 19.209 64.5899 18.899 64.6858 18.5889C64.7132 18.4407 64.7406 18.2924 64.7816 18.1441C64.8227 18.0093 64.809 17.888 64.7543 17.7667H64.6995C64.631 18.0902 64.5488 18.3867 64.4803 18.6833C64.4119 18.9799 64.3297 19.2764 64.2612 19.573C64.179 20.0178 64.0832 20.4896 63.9736 20.9749C63.864 21.4602 63.7681 21.932 63.6997 22.4038C63.6586 22.7812 63.6038 23.1721 63.549 23.5496C63.4942 23.9405 63.4121 24.3314 63.3025 24.7223C63.3025 24.8032 63.2888 24.8841 63.3025 24.9785C63.3025 25.0728 63.3573 25.1402 63.4258 25.2211C63.5079 25.0324 63.5627 24.8437 63.5901 24.6684C63.6175 24.4932 63.6449 24.3179 63.6586 24.1427C63.6997 23.8866 63.7271 23.6439 63.7545 23.4148C63.7818 23.1721 63.8229 22.943 63.8914 22.7003L63.8777 22.6869ZM64.0284 23.7518C64.0284 23.7518 63.9873 23.7653 63.9736 23.7787C63.9462 23.7922 63.9462 23.8192 64.001 23.8461L64.0421 23.7653L64.0284 23.7518ZM73.0814 19.8695L72.9992 19.0742C72.9855 18.9259 72.9718 18.7911 72.9718 18.6429C72.9718 18.4946 72.9444 18.3598 72.917 18.225C72.8622 18.0902 72.8622 17.9554 72.917 17.8206C72.9718 17.6723 72.9855 17.5375 72.9718 17.3892C72.9581 17.2275 72.9444 17.0657 72.917 16.8905C72.8896 16.7152 72.917 16.5535 72.9581 16.3917C72.9992 16.2299 73.0129 16.0682 72.9581 15.8929C72.917 15.7177 72.9444 15.5425 73.0266 15.3537C72.9718 15.2189 72.9718 15.0707 73.0129 14.9089C73.054 14.7337 73.0951 14.5719 73.1225 14.4236C73.1225 14.2753 73.1362 14.1136 73.1635 13.9249C73.1909 13.7496 73.2046 13.5744 73.232 13.4261C73.232 13.3857 73.232 13.3452 73.232 13.3048C73.232 13.2509 73.2046 13.2509 73.1225 13.2778C73.0951 13.3991 73.054 13.5205 73.0266 13.6687C72.9855 13.8035 72.9581 13.9518 72.9307 14.0866C72.9033 14.2484 72.8896 14.3967 72.9033 14.5449C72.9033 14.6932 72.8759 14.855 72.8074 15.0033C72.7801 15.165 72.7801 15.2998 72.7937 15.4211C72.7937 15.5425 72.7938 15.6773 72.7664 15.8121C72.6979 15.9738 72.6842 16.1356 72.7116 16.2704C72.7527 16.4052 72.739 16.5535 72.6979 16.7152C72.6705 16.877 72.6568 17.0118 72.6568 17.1196C72.6568 17.2409 72.6568 17.3757 72.6842 17.5105L72.7801 18.3867L72.8622 19.1821C72.8759 19.3303 72.8896 19.4651 72.9033 19.5999C72.917 19.7347 72.9444 19.883 72.9855 20.0583C72.9992 20.0178 73.0266 19.9909 73.054 19.9639C73.0814 19.9504 73.0951 19.9235 73.0951 19.883L73.0814 19.8695ZM73.2594 20.3683C73.2594 20.2739 73.2183 20.1526 73.1635 20.0043C73.1225 20.1796 73.1088 20.3144 73.1225 20.4087C73.1362 20.5031 73.1772 20.6109 73.232 20.7457C73.2594 20.5975 73.2594 20.4627 73.2594 20.3683ZM76.9162 24.965C76.9162 24.965 76.8614 25.0324 76.8614 25.0189C76.8067 25.2346 76.7519 25.4637 76.7108 25.6929C76.6697 25.9221 76.6149 26.1377 76.5601 26.3669C76.5601 26.4343 76.6286 26.5017 76.7382 26.5556C76.7656 26.4747 76.793 26.4208 76.7793 26.4073C76.7245 26.1243 76.7793 25.8547 76.9162 25.5716C76.9573 25.3424 76.9573 25.1537 76.9162 24.9919V24.965ZM77.0532 24.7358L77.0121 24.6954C76.9573 24.7628 76.9299 24.7897 76.9299 24.7763V24.938C77.0258 24.8976 77.0669 24.8437 77.0532 24.7493V24.7358ZM71.3557 31.6106C71.3557 31.6106 71.4242 31.705 71.4379 31.7589C71.4515 31.8128 71.4515 31.8802 71.4379 31.9476C71.4105 31.9207 71.4105 31.8937 71.4105 31.8533C71.4105 31.8128 71.4105 31.7859 71.3694 31.7724C71.342 31.8802 71.3557 31.9611 71.3968 32.015C71.3694 32.069 71.3557 32.1094 71.342 32.1633C71.3283 32.2038 71.3009 32.2577 71.2735 32.2981C71.2461 32.3386 71.2187 32.379 71.1913 32.4194C71.1639 32.4464 71.1365 32.4868 71.1092 32.5273C71.0407 32.5947 70.9996 32.6216 70.9722 32.6216C70.9448 32.6216 70.9037 32.6216 70.8489 32.5947C70.7941 32.5542 70.7805 32.5138 70.8078 32.4329C70.8078 32.406 70.8215 32.379 70.8352 32.352C70.8352 32.3251 70.8352 32.2981 70.8626 32.2712C70.8626 32.2712 70.8626 32.2442 70.8626 32.2307C70.8626 32.2307 70.8626 32.2038 70.8626 32.1903C70.6846 32.3251 70.5202 32.4599 70.3696 32.5947C70.2189 32.743 70.0683 32.8778 69.9176 33.0395C69.7259 33.2417 69.6163 33.39 69.5889 33.4978C69.5615 33.6057 69.5889 33.6866 69.6574 33.754C69.7259 33.8214 69.808 33.9022 69.9176 33.9831C70.0272 34.064 70.1094 34.1853 70.1778 34.3471C70.2463 34.5088 70.26 34.6706 70.1915 34.8324C70.123 35.0211 70.0409 35.1963 69.9176 35.3581C69.7943 35.5198 69.6711 35.6681 69.5204 35.8164C69.4656 35.8838 69.3972 35.9512 69.3424 36.0051C69.2739 36.059 69.2191 36.113 69.1506 36.1804C69.0411 36.2747 68.9178 36.3556 68.8082 36.396C68.6987 36.4365 68.5754 36.4769 68.4384 36.5174C68.3837 36.5039 68.3426 36.5039 68.2878 36.5039C68.233 36.5039 68.1782 36.5039 68.1371 36.4904C68.055 36.4634 67.9728 36.45 67.9043 36.4095C67.8221 36.3826 67.7537 36.3421 67.6989 36.3017C67.6578 36.2882 67.6304 36.2612 67.6167 36.2343C67.603 36.2073 67.5893 36.1804 67.5893 36.1399C67.5893 36.086 67.603 36.059 67.6578 36.0725C67.6989 36.0725 67.7537 36.0725 67.7947 36.0321C67.8358 36.0051 67.8632 35.9782 67.9043 35.9647C68.0139 35.9377 68.1234 35.8973 68.2193 35.8299C68.3152 35.7625 68.4248 35.6951 68.5206 35.6142C68.6987 35.4929 68.8219 35.3716 68.9178 35.2502C69.0137 35.1289 69.0685 34.9941 69.0822 34.8593C69.1096 34.7245 69.0822 34.6032 69.0548 34.4819C69.0137 34.3606 68.9452 34.2392 68.8767 34.1179C68.863 34.1044 68.8356 34.0775 68.8219 34.064C68.7945 34.0505 68.7809 34.0236 68.7672 34.0101C68.685 33.9292 68.6439 33.8214 68.6302 33.6866C68.6028 33.5518 68.6028 33.4035 68.6576 33.2552C68.6987 33.1069 68.7535 32.9721 68.8219 32.8373C68.8767 32.7295 68.9315 32.6351 69.0137 32.5408C69.0959 32.4464 69.178 32.352 69.2602 32.2577C69.3424 32.1633 69.4246 32.0824 69.5067 32.0016C69.5889 31.9207 69.6848 31.8398 69.7807 31.7589C69.8628 31.6915 69.945 31.6376 70.0272 31.5837C70.1094 31.5298 70.1915 31.4893 70.2737 31.4489C70.3559 31.395 70.4518 31.3545 70.5476 31.3276C70.6435 31.3006 70.7394 31.2871 70.8215 31.3006C70.8489 31.3006 70.8763 31.3006 70.9037 31.3141C70.9311 31.3141 70.9722 31.3141 70.9996 31.3141C71.0407 31.3141 71.0818 31.3276 71.1228 31.3545C71.1502 31.3545 71.1913 31.3815 71.205 31.395C71.2324 31.395 71.2461 31.4219 71.2735 31.4489C71.3009 31.5028 71.342 31.5432 71.3831 31.5837L71.3557 31.6106ZM70.0546 34.4954C70.0546 34.6032 70.0546 34.7245 70.0957 34.8458C70.1504 34.765 70.1778 34.6976 70.1641 34.6436C70.1641 34.5897 70.1641 34.5358 70.1367 34.4819C70.1367 34.4819 70.1367 34.4819 70.1094 34.4684C70.082 34.4684 70.0683 34.4954 70.0683 34.5088L70.0546 34.4954ZM70.4107 32.0824C70.4107 32.0824 70.5065 32.0824 70.5476 32.0824C70.5887 32.0824 70.6298 32.0824 70.6572 32.0824V32.0285C70.6298 32.0285 70.5887 32.0285 70.5476 32.042C70.5065 32.042 70.4654 32.069 70.4107 32.0959V32.0824ZM70.0957 32.4734C70.0957 32.4734 70.0957 32.4599 70.0957 32.4464C70.0957 32.4464 70.0957 32.4599 70.0957 32.4734ZM69.8628 32.7699C69.8628 32.7699 69.8628 32.7699 69.8491 32.7699V32.7969C69.8628 32.7969 69.8765 32.7699 69.8765 32.7564L69.8628 32.7699ZM70.8763 32.0555C70.8763 32.0555 70.8352 32.015 70.8078 32.0285C70.7531 32.069 70.6983 32.0959 70.6435 32.1364C70.5887 32.1768 70.5339 32.2038 70.4654 32.2442C70.4381 32.2577 70.4244 32.2846 70.4107 32.2981C70.3696 32.3386 70.3285 32.379 70.2874 32.4194C70.2463 32.4599 70.2052 32.5003 70.1641 32.5408C70.1504 32.5542 70.123 32.5812 70.1094 32.5947C70.082 32.6082 70.082 32.6351 70.082 32.6621L70.0546 32.6756C70.0546 32.6756 70.0546 32.6756 70.0546 32.689C70.0546 32.689 70.0546 32.689 70.0546 32.6756C70.0546 32.6621 70.0546 32.6756 70.0683 32.6621C70.0957 32.6621 70.123 32.6486 70.1504 32.6216C70.1778 32.5947 70.1915 32.5812 70.2189 32.5542C70.3148 32.4734 70.4107 32.406 70.5065 32.3386C70.6024 32.2712 70.6983 32.2172 70.8078 32.1498C70.8078 32.1498 70.8078 32.1498 70.8215 32.1498C70.8215 32.1498 70.8352 32.1498 70.8489 32.1498C70.8626 32.1229 70.8763 32.0959 70.8763 32.069V32.0555ZM67.5756 35.776C67.5756 35.776 67.4934 35.8838 67.4523 35.9512C67.3154 36.1264 67.1784 36.2747 67.0278 36.423C66.8771 36.5713 66.7128 36.7061 66.5347 36.8409C66.4662 36.8948 66.3978 36.9352 66.343 36.9892C66.2882 37.0431 66.206 37.0835 66.1238 37.1374C66.028 37.2183 65.9321 37.2857 65.8225 37.3396C65.713 37.3936 65.6171 37.461 65.4938 37.5149C65.4938 37.5149 65.4664 37.5149 65.4664 37.5284C65.4664 37.5284 65.439 37.5284 65.439 37.5418C65.398 37.5553 65.3569 37.5688 65.3158 37.5823C65.2747 37.5823 65.2336 37.6227 65.1925 37.6497C65.1925 37.6497 65.1651 37.6632 65.1514 37.6497C65.1377 37.6497 65.1103 37.6497 65.0966 37.6497L65.124 37.5958C65.124 37.5958 65.1788 37.5418 65.1925 37.5284C65.2062 37.5014 65.2336 37.4879 65.261 37.461C65.3158 37.4205 65.3706 37.3666 65.4254 37.3127C65.4801 37.2588 65.5349 37.2048 65.6034 37.1644C65.6308 37.1374 65.6582 37.1105 65.6856 37.0835C65.713 37.0566 65.7267 37.0161 65.7404 36.9757L65.7677 36.9487H65.7404C65.7404 36.9487 65.713 36.8948 65.6856 36.9218C65.6171 36.9757 65.5349 37.0296 65.4527 37.0835C65.3706 37.1374 65.3021 37.1914 65.2199 37.2453C65.083 37.3396 64.9323 37.434 64.7679 37.5284C64.6173 37.6227 64.4529 37.7036 64.2886 37.7845C64.2338 37.798 64.2064 37.8249 64.179 37.8519C64.1242 37.8923 64.0832 37.9328 64.0421 37.9462C64.001 37.9597 63.9599 38.0002 63.9188 38.0406C63.8777 38.0271 63.864 38.0002 63.8366 37.9867C63.8229 37.9597 63.7955 37.9597 63.7681 37.9597C63.6997 37.9597 63.6586 37.9328 63.6449 37.8788C63.6449 37.8249 63.6175 37.7845 63.6038 37.7306C63.6038 37.7036 63.6038 37.6766 63.6038 37.6632C63.6312 37.5823 63.6449 37.5014 63.6449 37.434C63.6449 37.3666 63.6449 37.2857 63.6723 37.2183C63.7271 37.0296 63.7818 36.8274 63.8366 36.6387C63.8914 36.45 63.9462 36.2612 64.0147 36.0725C64.0558 35.9647 64.0969 35.8568 64.1379 35.749C64.179 35.6412 64.2201 35.5333 64.2749 35.4255C64.3297 35.2772 64.3982 35.1154 64.4529 34.9537C64.5214 34.7919 64.5899 34.6302 64.6584 34.4819C64.6584 34.4819 64.6584 34.4684 64.6584 34.4549C64.6584 34.4549 64.6584 34.4414 64.6584 34.428C64.6036 34.4549 64.5625 34.4954 64.5351 34.5223C64.5077 34.5493 64.4666 34.5897 64.4256 34.6167C64.4119 34.6302 64.3845 34.6571 64.3571 34.6706C64.3297 34.6976 64.3023 34.711 64.2886 34.738C64.2612 34.765 64.2201 34.765 64.1927 34.765C64.1653 34.765 64.1379 34.738 64.1379 34.711C64.1105 34.6032 64.1379 34.4819 64.2064 34.3606C64.2475 34.2932 64.3023 34.2123 64.3434 34.1449C64.3845 34.0775 64.4393 34.0101 64.494 33.9427C64.5351 33.8888 64.5899 33.8214 64.631 33.7674C64.6721 33.7135 64.7269 33.6461 64.7816 33.5787C64.8638 33.5113 64.9323 33.4439 65.0008 33.363C65.083 33.2956 65.1377 33.2013 65.1651 33.0934C65.1651 33.053 65.1925 33.0126 65.2062 32.9721C65.2199 32.9317 65.2336 32.8778 65.2473 32.8238C65.261 32.7834 65.2884 32.7564 65.3021 32.7295C65.3158 32.7025 65.3432 32.6621 65.3706 32.6351C65.3706 32.6351 65.3706 32.6351 65.3843 32.6351C65.3843 32.6351 65.3843 32.6351 65.398 32.6351H65.4117C65.4117 32.6351 65.4664 32.6351 65.4664 32.6756C65.4664 32.689 65.4527 32.7025 65.4527 32.7295C65.4527 32.743 65.4527 32.7564 65.4527 32.7699C65.4254 32.8238 65.4254 32.8778 65.4254 32.9182C65.4117 32.9182 65.398 32.9452 65.3843 32.9721C65.3843 32.9721 65.3843 32.9991 65.4117 32.9991C65.4117 32.9856 65.4117 32.9721 65.4254 32.9721C65.4254 32.9721 65.4254 32.9586 65.4254 32.9452C65.4254 32.9452 65.4254 32.9317 65.4254 32.9182C65.4527 32.9182 65.4801 32.9047 65.4801 32.8778C65.4801 32.8643 65.4938 32.8373 65.5075 32.8238C65.5897 32.6756 65.6993 32.5812 65.8225 32.5138L65.9869 32.5542C65.9869 32.5542 65.9869 32.5542 66.0006 32.5542C66.0006 32.5542 66.0143 32.5542 66.028 32.5542C66.1102 32.5003 66.206 32.4464 66.3019 32.379C66.3978 32.3251 66.4799 32.2712 66.5758 32.2307C66.5895 32.2307 66.6169 32.2038 66.6306 32.1903C66.658 32.1903 66.6717 32.1768 66.6991 32.1768C66.7675 32.1498 66.836 32.1229 66.8908 32.0959C66.9456 32.069 67.0004 32.042 67.0689 32.042C67.11 32.042 67.151 32.042 67.1784 32.015C67.2195 32.0016 67.2469 31.9881 67.288 31.9881C67.3976 31.9611 67.4934 31.9611 67.5756 31.9476C67.6715 31.9476 67.7537 31.9611 67.8358 32.015L67.9454 32.0555C68.0276 32.0959 68.0824 32.1498 68.1371 32.2307C68.1782 32.2981 68.2193 32.352 68.2604 32.406C68.3015 32.4599 68.3289 32.5138 68.3426 32.5677C68.3426 32.5812 68.3426 32.5947 68.3426 32.6082C68.3426 32.6082 68.3563 32.6216 68.3563 32.6351C68.3426 32.689 68.3289 32.7295 68.3152 32.7834C68.3152 32.8238 68.3015 32.8778 68.2741 32.9317C68.2193 33.1204 68.1234 33.3091 68.0002 33.4709C67.9317 33.5652 67.8769 33.6596 67.8084 33.7405C67.7537 33.8214 67.6852 33.9157 67.6167 33.9966C67.5619 34.064 67.5071 34.1179 67.4387 34.1718C67.3702 34.2258 67.3154 34.2932 67.2469 34.3606C67.2058 34.4145 67.151 34.4549 67.0963 34.5088C67.0415 34.5628 66.9867 34.6032 66.9456 34.6706C67.0004 34.6976 67.0552 34.711 67.1236 34.738C67.1784 34.7515 67.2469 34.7784 67.288 34.8054C67.3428 34.8458 67.3976 34.8863 67.4387 34.9267C67.4797 34.9672 67.5208 35.0211 67.5345 35.0885C67.5482 35.1154 67.5756 35.1424 67.5893 35.1694C67.6167 35.1963 67.6304 35.2233 67.6578 35.2502C67.7263 35.3581 67.7263 35.4929 67.6578 35.6412C67.6304 35.6951 67.5893 35.749 67.5482 35.8029L67.5756 35.776ZM68.1371 32.7564C68.1371 32.8373 68.1371 32.9182 68.1371 32.9991C68.1919 32.9721 68.2056 32.9317 68.2056 32.9047C68.2056 32.8778 68.2056 32.8373 68.233 32.7969C68.233 32.7699 68.2467 32.743 68.2467 32.716C68.2467 32.689 68.2467 32.6621 68.2467 32.6351C68.2467 32.6082 68.2467 32.5812 68.2193 32.5677C68.2056 32.5542 68.1782 32.5273 68.1645 32.5138C68.1234 32.5947 68.0961 32.6756 68.1097 32.7564H68.1371ZM65.2336 35.1559C65.2336 35.1559 65.2473 35.1559 65.261 35.1694C65.2747 35.1828 65.2747 35.1694 65.2884 35.1694L65.4117 35.102C65.4117 35.102 65.3706 35.048 65.3569 35.048C65.3295 35.048 65.3021 35.075 65.2884 35.0885C65.2747 35.102 65.261 35.1154 65.2473 35.1424C65.2473 35.1424 65.2473 35.1424 65.2473 35.1559C65.2473 35.1559 65.2473 35.1559 65.2473 35.1694L65.2336 35.1559ZM65.2062 34.9806H65.2336C65.2336 34.9806 65.2336 34.9806 65.2336 34.9672V34.9941L65.2062 34.9806ZM64.5488 36.9892C64.5488 36.9892 64.5899 36.9622 64.5899 36.9352C64.5899 36.9218 64.5899 36.8948 64.5899 36.8678L64.7406 36.423C64.7406 36.423 64.7406 36.396 64.7406 36.3691C64.7406 36.3556 64.7406 36.3286 64.7406 36.3152C64.7132 36.396 64.6858 36.4634 64.6584 36.5308C64.631 36.5982 64.6173 36.6791 64.5899 36.76C64.5899 36.7735 64.5762 36.8004 64.5762 36.8139C64.5762 36.8409 64.5762 36.8544 64.5762 36.8678C64.5762 36.8678 64.5762 36.8678 64.5488 36.8813C64.5488 36.8813 64.5351 36.8813 64.5488 36.9083C64.5488 36.9487 64.5488 36.9757 64.5488 36.9892ZM64.5214 37.0566V37.07C64.5214 37.07 64.5214 37.0566 64.5214 37.0431C64.5214 37.0431 64.5214 37.0161 64.5214 37.0026C64.494 37.0026 64.4803 37.0296 64.494 37.0566H64.5214ZM64.4666 37.1779V37.2048C64.494 37.1914 64.5077 37.1779 64.5077 37.1779L64.4803 37.1509C64.4803 37.1509 64.4803 37.1509 64.4803 37.1644C64.4803 37.1644 64.4803 37.1644 64.4803 37.1779H64.4666ZM66.3704 35.6142C66.3704 35.6142 66.3704 35.5468 66.343 35.5198C66.3156 35.4929 66.2882 35.4929 66.2334 35.4929C66.1512 35.5198 66.0691 35.5468 66.0006 35.5603C65.9321 35.5738 65.8499 35.6007 65.7814 35.6412C65.7404 35.6681 65.6993 35.6816 65.6582 35.6951C65.6171 35.6951 65.576 35.722 65.5349 35.749C65.439 35.8029 65.3569 35.8568 65.261 35.8973C65.1788 35.9512 65.083 36.0051 65.0008 36.086C64.9734 36.113 64.946 36.1534 64.9186 36.1804C64.8912 36.2073 64.8775 36.2478 64.8638 36.3017C64.8638 36.3421 64.8364 36.4095 64.809 36.4904C64.7817 36.5848 64.7543 36.6791 64.7132 36.7735C64.6721 36.8813 64.6447 36.9622 64.6173 37.0566C64.5899 37.1509 64.5625 37.2048 64.5625 37.2318C64.5488 37.2992 64.5214 37.3531 64.494 37.407C64.4666 37.461 64.4392 37.5149 64.4392 37.5823C64.4392 37.5823 64.4392 37.5823 64.4256 37.5823L64.4392 37.5553C64.4803 37.5553 64.5077 37.5418 64.5488 37.5014C64.631 37.434 64.7132 37.3666 64.7953 37.2992C64.8775 37.2318 64.9597 37.1644 65.0419 37.0835C65.1651 36.9757 65.2884 36.8544 65.4117 36.7465C65.5349 36.6387 65.6582 36.5174 65.7677 36.3826L65.8088 36.3421C65.9047 36.2478 66.0006 36.1399 66.0965 36.0456C66.1786 35.9377 66.2745 35.8299 66.3567 35.722C66.3567 35.7086 66.3841 35.6816 66.3841 35.6681C66.3841 35.6412 66.3978 35.6142 66.4115 35.5872L66.3704 35.6142ZM65.4801 35.0346C65.5486 35.0076 65.576 34.9672 65.576 34.9402C65.576 34.9402 65.6034 34.9402 65.6171 34.9402C65.6171 34.9402 65.6445 34.9402 65.6582 34.9132V34.8863C65.6308 34.8863 65.6034 34.9132 65.5897 34.9402C65.5623 34.9402 65.5349 34.9402 65.5212 34.9672C65.5075 34.9806 65.4938 35.0076 65.4801 35.0211V35.0346ZM66.7675 35.5198C66.7675 35.5198 66.7676 35.5198 66.7402 35.5064C66.7265 35.5064 66.7128 35.4794 66.6991 35.4659C66.6717 35.5738 66.6854 35.6546 66.6991 35.7355C66.6991 35.7086 66.7128 35.6681 66.7265 35.6412C66.7265 35.6142 66.7402 35.5738 66.7539 35.5333L66.7675 35.5198ZM66.8223 33.727C66.9593 33.5652 67.0826 33.4035 67.1921 33.2417C67.2332 33.2013 67.2606 33.1608 67.2743 33.1204C67.3017 33.08 67.3154 33.0395 67.3428 32.9991C67.3702 32.9452 67.3976 32.8912 67.4113 32.8373C67.425 32.7834 67.4113 32.743 67.3976 32.7025C67.3565 32.6756 67.3154 32.6621 67.2606 32.6621C67.2058 32.6621 67.1647 32.6621 67.1236 32.6621C67.0963 32.6621 67.0552 32.6621 67.0415 32.6621C67.0141 32.6621 66.9867 32.6756 66.9593 32.689C66.9456 32.689 66.9182 32.689 66.8908 32.716C66.8634 32.7295 66.836 32.743 66.8086 32.743C66.658 32.7969 66.521 32.8643 66.3978 32.9317C66.2608 33.0126 66.1375 33.0934 66.0006 33.1743C65.9595 33.2687 65.9321 33.363 65.891 33.4574C65.8636 33.5518 65.8225 33.6461 65.7814 33.7405L65.5623 34.3336C65.5349 34.428 65.4938 34.5223 65.4527 34.6167C65.4117 34.711 65.3843 34.8054 65.3432 34.8998C65.3569 34.8998 65.3843 34.8728 65.4117 34.8728C65.4801 34.8324 65.5349 34.7784 65.5897 34.738C65.6445 34.6976 65.6993 34.6436 65.7677 34.6032C65.891 34.4954 66.028 34.401 66.1512 34.3066C66.2745 34.2123 66.4115 34.1044 66.521 34.0101C66.5758 33.9696 66.6306 33.9157 66.6854 33.8753C66.7402 33.8214 66.7813 33.7809 66.836 33.727H66.8223ZM67.5482 35.6546C67.5482 35.6546 67.6167 35.5333 67.6304 35.4794C67.6304 35.4255 67.6304 35.3716 67.6167 35.3042C67.6167 35.3042 67.6167 35.2907 67.5893 35.3042C67.5893 35.3311 67.5756 35.3716 67.5619 35.3985C67.5619 35.4255 67.5482 35.4524 67.5619 35.4794C67.5619 35.5064 67.5619 35.5333 67.5619 35.5603C67.5619 35.5872 67.5619 35.6277 67.5756 35.6546H67.5482ZM63.7271 35.3716C63.686 35.5198 63.6312 35.6546 63.5627 35.8029C63.4942 35.9916 63.4258 36.1804 63.371 36.3556C63.3162 36.5308 63.2477 36.7196 63.1792 36.9083C63.1518 37.0026 63.1107 37.0835 63.0697 37.1779C63.0286 37.2722 63.0012 37.3531 62.9738 37.4475C62.9327 37.5958 62.8779 37.744 62.8094 37.8923C62.741 38.0406 62.6862 38.2024 62.6314 38.3506C62.604 38.445 62.5766 38.5259 62.5355 38.6202C62.4944 38.7146 62.467 38.809 62.4533 38.9033C62.4533 38.9033 62.4533 38.9168 62.4259 38.9303C62.4259 38.9303 62.4123 38.9303 62.3986 38.9438C62.3849 38.9438 62.3712 38.9168 62.3712 38.9033C62.3712 38.8764 62.3712 38.8629 62.3712 38.8494C62.3712 38.7685 62.3575 38.6876 62.3575 38.6202C62.3575 38.5394 62.3575 38.4585 62.3438 38.3776C62.3438 38.3372 62.3438 38.2832 62.3438 38.2428C62.3438 38.2024 62.3438 38.1484 62.3438 38.0945C62.3438 38.0541 62.3438 38.0002 62.3301 37.9597C62.3301 37.9193 62.3301 37.8654 62.3575 37.8114C62.3575 37.8114 62.3575 37.798 62.3575 37.771C62.3575 37.7306 62.3575 37.6901 62.3575 37.6497C62.3575 37.6092 62.3575 37.5688 62.3575 37.5284C62.3712 37.4879 62.3712 37.4475 62.3575 37.407C62.3575 37.3666 62.3575 37.3262 62.3849 37.2857V37.2183C62.3849 37.2183 62.3575 37.1914 62.3301 37.2048C62.3164 37.2048 62.3027 37.2048 62.289 37.2048C62.1794 37.2857 62.0699 37.3531 61.9466 37.407C61.837 37.4744 61.7138 37.5284 61.5905 37.5958C61.5357 37.6227 61.4946 37.6632 61.4535 37.7036C61.4125 37.744 61.3851 37.7845 61.3577 37.8249C61.3166 37.8788 61.2755 37.9328 61.2344 37.9867C61.1933 38.0406 61.1385 38.081 61.0701 38.135C61.0427 38.135 61.0153 38.135 60.9879 38.1215C60.892 38.1889 60.7961 38.2563 60.7003 38.3237C60.6866 38.3372 60.6592 38.3506 60.6318 38.3641C60.6044 38.3641 60.577 38.3911 60.5633 38.4046C60.4674 38.4854 60.3716 38.5663 60.2757 38.6337C60.1798 38.7011 60.084 38.7685 59.9881 38.8224C59.9881 38.8224 59.9607 38.8359 59.9607 38.8494C59.9607 38.8494 59.9607 38.8494 59.947 38.8629C59.7963 38.9707 59.6457 39.0786 59.495 39.1999C59.3444 39.3077 59.1937 39.429 59.0568 39.5504C58.9883 39.5908 58.9198 39.6447 58.8513 39.6852C58.7828 39.7256 58.7281 39.7795 58.6596 39.82C58.5363 39.9008 58.413 39.9952 58.2898 40.0896C58.1665 40.1839 58.057 40.2783 57.9474 40.3861C57.8926 40.4266 57.8515 40.4535 57.8104 40.494C57.7693 40.5209 57.7283 40.5614 57.6735 40.6018C57.6187 40.5883 57.5639 40.5614 57.5228 40.5344C57.4817 40.5074 57.4269 40.494 57.3859 40.494C57.3722 40.4805 57.3585 40.4535 57.3448 40.44C57.3448 40.4266 57.3174 40.4131 57.3037 40.3861C57.29 40.3457 57.2763 40.3052 57.2626 40.2648C57.2489 40.2244 57.2352 40.1839 57.2215 40.1435C57.1941 40.1435 57.1667 40.1435 57.1393 40.1704C57.1256 40.1974 57.0982 40.2109 57.0708 40.2109C57.0435 40.2109 57.0161 40.2109 56.9887 40.2244C56.9613 40.2244 56.9339 40.2244 56.9065 40.2244C56.8791 40.2244 56.8517 40.2244 56.8243 40.2244C56.7969 40.2244 56.7695 40.2244 56.7558 40.2109C56.7558 40.0491 56.8517 39.8874 57.0298 39.7526L57.0845 39.7121C57.0845 39.7121 57.1393 39.6717 57.1667 39.6582C57.1941 39.6447 57.2215 39.6178 57.2352 39.6043C57.2626 39.5773 57.2763 39.5504 57.2763 39.5099C57.2763 39.4695 57.2763 39.4425 57.29 39.4021C57.3448 39.1999 57.3996 38.9977 57.468 38.7955C57.5365 38.5933 57.605 38.3911 57.6872 38.1889C57.7283 38.0945 57.7556 37.9867 57.7967 37.8923C57.8241 37.798 57.8652 37.6901 57.9063 37.5958C57.9337 37.5014 57.9748 37.4205 58.0159 37.3396C58.057 37.2588 58.098 37.1779 58.1391 37.0835C58.1802 37.0026 58.2076 36.9218 58.2487 36.8274C58.2761 36.733 58.3172 36.6522 58.3583 36.5713C58.4678 36.3152 58.5911 36.059 58.7281 35.8164C58.8513 35.5603 58.9883 35.3176 59.1252 35.0615C59.1663 35.0076 59.1937 34.9672 59.2211 34.9132C59.2485 34.8728 59.2759 34.8189 59.3033 34.7784C59.3581 34.6976 59.4129 34.6167 59.4676 34.5358C59.5087 34.4549 59.5635 34.374 59.632 34.2932C59.6868 34.2258 59.7415 34.1718 59.7963 34.1179C59.8511 34.064 59.9196 34.0236 60.0018 33.9696C60.0155 33.9696 60.0429 33.9696 60.0703 33.9831C60.0976 33.9831 60.125 33.9966 60.1387 34.0101C60.1935 34.037 60.2209 34.0775 60.2072 34.1584C60.1798 34.1988 60.1524 34.2527 60.1387 34.2932C60.1387 34.3201 60.1524 34.3336 60.1661 34.3336C60.1935 34.3336 60.2209 34.3336 60.2346 34.3336C60.2346 34.3336 60.262 34.3066 60.2757 34.2797C60.2757 34.2527 60.2894 34.2392 60.3031 34.2392C60.3305 34.2662 60.3305 34.2932 60.3031 34.3336C60.2757 34.3875 60.2483 34.4414 60.2346 34.4954C60.2072 34.5493 60.1935 34.6032 60.1661 34.6571C60.1113 34.7515 60.0703 34.8458 60.0155 34.9402C59.9744 35.0346 59.9196 35.1289 59.8648 35.2233C59.7826 35.385 59.7142 35.5333 59.6457 35.6951C59.5772 35.8568 59.5087 36.0051 59.4265 36.1669C59.3307 36.396 59.2211 36.6252 59.1252 36.8544C59.0294 37.0835 58.9335 37.3127 58.8513 37.5418C58.8239 37.6092 58.7965 37.6766 58.7691 37.744C58.7417 37.8114 58.7144 37.8788 58.687 37.9462C58.6322 38.0676 58.5911 38.1889 58.55 38.3102C58.5089 38.4315 58.4678 38.5663 58.4267 38.6876C58.4267 38.7281 58.3994 38.755 58.3857 38.7955C58.372 38.8359 58.3583 38.8629 58.3446 38.9033C58.3446 38.9033 58.3446 38.9438 58.3446 38.9842C58.4815 38.9438 58.6048 38.8898 58.7144 38.809C58.8239 38.7416 58.9472 38.6607 59.0704 38.5933C59.18 38.5259 59.2896 38.472 59.4128 38.4046C59.5361 38.3372 59.6457 38.2698 59.7552 38.2158C59.8785 38.1619 59.9881 38.0945 60.1113 38.0271C60.2072 37.9732 60.3031 37.9193 60.4127 37.8788C60.4127 37.8384 60.4127 37.798 60.4127 37.771C60.4948 37.6362 60.577 37.5284 60.6866 37.461C60.7414 37.434 60.7824 37.3936 60.8098 37.3396C60.8509 37.2992 60.8783 37.2453 60.9194 37.2048C60.9605 37.1374 61.0153 37.0835 61.0564 37.0296C61.0974 36.9757 61.1522 36.9083 61.1933 36.8544C61.3029 36.6791 61.4261 36.5174 61.5494 36.3691C61.6727 36.2073 61.7959 36.059 61.9055 35.8973C61.9466 35.7894 62.0014 35.6951 62.0836 35.6142C62.152 35.5333 62.2205 35.439 62.2753 35.3311C62.2753 35.3176 62.3027 35.3042 62.3164 35.2907C62.3164 35.2772 62.3438 35.2637 62.3438 35.2368C62.4123 35.1424 62.4807 35.048 62.5355 34.9402C62.604 34.8458 62.6588 34.738 62.7273 34.6436C62.7684 34.5762 62.8094 34.5223 62.8505 34.4549C62.8916 34.401 62.9327 34.3336 62.9738 34.2797C63.0834 34.091 63.2066 33.9157 63.3162 33.727C63.4258 33.5518 63.5353 33.363 63.6312 33.1743C63.6586 33.1204 63.6997 33.053 63.7545 32.9856C63.8366 32.9047 63.9188 32.8508 64.001 32.8104C64.1242 32.8104 64.2064 32.8373 64.2612 32.9047C64.2886 32.9317 64.3023 32.9721 64.2886 33.0126C64.2886 33.0395 64.2749 33.0665 64.2612 33.0934C64.2612 33.1204 64.2612 33.1474 64.2338 33.1743C64.2338 33.1743 64.2338 33.1878 64.2338 33.2013C64.2338 33.2013 64.2338 33.2148 64.2338 33.2282C64.2338 33.2282 64.2612 33.2282 64.2749 33.2282C64.2749 33.2282 64.3023 33.2148 64.316 33.2013C64.316 33.1743 64.3434 33.1608 64.3571 33.1474C64.3708 33.1339 64.3982 33.0934 64.4256 33.0665C64.4256 33.1204 64.4256 33.1608 64.4256 33.1743C64.3845 33.3361 64.3297 33.4844 64.2749 33.6461C64.2201 33.7944 64.1653 33.9562 64.1105 34.1179C64.0695 34.2392 64.0284 34.374 63.9873 34.5088C63.9462 34.6436 63.9051 34.765 63.864 34.8998C63.8229 35.048 63.7818 35.1828 63.7408 35.3311L63.7271 35.3716ZM60.4674 38.081C60.4674 38.081 60.44 38.081 60.4263 38.0676C60.4263 38.0676 60.4127 38.0541 60.399 38.0406C60.3716 38.0676 60.3305 38.081 60.3031 38.108C60.3031 38.135 60.3031 38.135 60.3305 38.135C60.3305 38.135 60.3579 38.135 60.3716 38.135C60.4127 38.135 60.44 38.108 60.4674 38.108V38.081ZM62.6314 35.9782C62.6314 35.9782 62.6314 35.9242 62.604 35.9242C62.5766 35.9647 62.5492 36.0186 62.5081 36.059C62.4807 36.0995 62.4533 36.1399 62.4259 36.1804C62.3575 36.2747 62.3027 36.3691 62.2479 36.4634C62.1931 36.5578 62.1383 36.6387 62.0699 36.733C62.0699 36.76 62.0425 36.787 62.0151 36.8139C61.9877 36.8409 61.974 36.8678 61.974 36.9083C62.0014 36.9218 62.0288 36.9352 62.0562 36.9083C62.0836 36.8948 62.1109 36.8813 62.152 36.8813C62.1657 36.8813 62.1931 36.8813 62.2205 36.8813C62.2479 36.8813 62.2753 36.8813 62.3027 36.8678C62.3712 36.8544 62.3986 36.8274 62.4123 36.8139C62.4123 36.8004 62.4396 36.76 62.4396 36.7061C62.4396 36.6926 62.4533 36.6791 62.4533 36.6522C62.4533 36.6252 62.4533 36.6117 62.4533 36.5982C62.4807 36.4904 62.4944 36.3826 62.5218 36.2882C62.5492 36.1804 62.5629 36.0725 62.5903 35.9782H62.6314Z" fill="white"/>
</svg>
