<?xml version="1.0" encoding="UTF-8"?><!DOCTYPE svg PUBLIC "-//W3C//DTD SVG 1.1//EN" "http://www.w3.org/Graphics/SVG/1.1/DTD/svg11.dtd"><svg xmlns="http://www.w3.org/2000/svg" xmlns:xlink="http://www.w3.org/1999/xlink"><symbol id="glass"><path d="M18.5 10a8.5 8.5 0 1 0-8.5 8.5V20C4.477 20 0 15.523 0 10S4.477 0 10 0s10 4.477 10 10-4.477 10-10 10v-1.5a8.5 8.5 0 0 0 8.5-8.5Z"/><path d="M21.53 20.41a.75.75 0 0 1-1.004 1.11l-.056-.05-3.94-3.94a.75.75 0 1 1 1.061-1.06l3.94 3.94Z"/></symbol><symbol id="login" viewBox="0 0 21 22"><path d="M19.25 21c0-4.519-3.879-8.25-8.75-8.25S1.75 16.481 1.75 21a.75.75 0 0 1-1.5 0c0-5.422 4.628-9.75 10.25-9.75S20.75 15.578 20.75 21a.75.75 0 0 1-1.5 0ZM14.5 5.5a4 4 0 1 0-4 4V11a5.5 5.5 0 1 1 0-11 5.5 5.5 0 0 1 0 11V9.5a4 4 0 0 0 4-4Z"/></symbol><symbol id="triangle-down" viewBox="0 0 12 8"><path d="M10.47.97a.75.75 0 1 1 1.06 1.06l-5 5a.75.75 0 0 1-1.06 0l-5-5A.75.75 0 1 1 1.53.97L6 5.44 10.47.97Z"/></symbol></svg>